<?xml version="1.0" standalone="no"?>
<!DOCTYPE svg PUBLIC "-//W3C//DTD SVG 20010904//EN"
 "http://www.w3.org/TR/2001/REC-SVG-20010904/DTD/svg10.dtd">
<svg version="1.0" xmlns="http://www.w3.org/2000/svg"
 width="2000.000000pt" height="2000.000000pt" viewBox="0 0 2000.000000 2000.000000"
 preserveAspectRatio="xMidYMid meet">

<g transform="translate(0.000000,2000.000000) scale(0.100000,-0.100000)"
fill="#000000" stroke="none">
<path d="M10024 19056 c-115 -28 -204 -64 -204 -82 0 -27 33 -134 42 -134 5 0
41 16 81 37 39 20 115 50 167 67 80 27 96 35 104 58 7 20 5 33 -8 52 -21 33
-57 33 -182 2z"/>
<path d="M9692 18921 c-78 -46 -196 -135 -221 -164 -13 -16 15 -120 51 -190
l19 -38 41 53 c53 67 150 161 205 200 24 16 43 33 43 37 0 9 -49 144 -54 149
-2 1 -39 -20 -84 -47z"/>
<path d="M9394 18678 c-84 -91 -264 -338 -264 -362 0 -45 107 -246 131 -246 7
0 29 36 188 307 l71 123 -28 57 c-16 32 -35 76 -42 98 -18 57 -22 59 -56 23z"/>
<path d="M10880 18584 c-75 -16 -183 -50 -222 -70 l-27 -14 20 -72 c11 -40 21
-74 22 -75 1 -1 42 18 90 43 49 24 127 55 173 70 104 31 123 61 76 117 -18 20
-43 20 -132 1z"/>
<path d="M8098 18463 c-8 -10 -26 -38 -40 -63 -15 -25 -47 -69 -72 -98 -25
-30 -46 -57 -46 -61 0 -4 14 -29 31 -55 47 -71 149 -146 198 -146 27 0 46 81
46 200 -1 83 -4 103 -29 158 -25 53 -49 82 -69 82 -2 0 -11 -8 -19 -17z"/>
<path d="M10501 18434 c-73 -44 -186 -129 -210 -158 -9 -11 -10 -25 -1 -58 14
-55 60 -168 69 -167 3 0 32 34 64 75 33 41 97 104 143 141 60 48 83 72 78 83
-3 8 -15 41 -26 73 -11 31 -25 57 -31 56 -7 0 -45 -21 -86 -45z"/>
<path d="M9038 18213 c-30 -37 -103 -117 -162 -178 -106 -109 -106 -110 -93
-139 l13 -29 37 59 c60 99 65 104 101 104 53 0 96 -56 126 -164 l17 -59 45 59
c25 32 64 85 86 118 l41 59 -38 43 c-22 25 -57 78 -78 120 l-40 75 -55 -68z"/>
<path d="M10188 18168 c-31 -35 -99 -123 -153 -197 l-97 -133 26 -68 c27 -67
91 -170 111 -177 11 -3 40 42 183 288 l79 136 -20 39 c-11 22 -33 70 -47 107
l-27 68 -55 -63z"/>
<path d="M7834 18149 c-38 -33 -70 -65 -72 -70 -2 -4 9 -31 24 -59 55 -101
171 -178 275 -183 l53 -2 32 85 c18 47 33 88 33 93 1 4 -9 7 -22 7 -46 0 -126
51 -191 121 l-63 69 -69 -61z"/>
<path d="M7630 17965 c-49 -49 -90 -94 -90 -99 0 -22 89 -112 141 -143 97 -58
209 -75 328 -50 53 12 55 13 72 62 10 28 18 55 18 60 1 6 -30 15 -68 21 -121
20 -206 75 -272 177 l-39 60 -90 -88z"/>
<path d="M8867 17908 c-30 -46 -67 -94 -81 -107 -34 -32 -33 -48 8 -105 54
-76 137 -136 189 -136 20 0 26 7 32 33 30 140 22 257 -23 341 -41 78 -58 74
-125 -26z"/>
<path d="M8645 17823 c-73 -60 -321 -233 -401 -279 -21 -12 -16 -28 33 -112
l25 -43 81 83 c45 47 134 130 197 185 63 55 132 119 153 141 l38 39 -18 30
-18 30 -90 -74z"/>
<path d="M7472 17772 c-20 -32 -48 -81 -61 -109 l-24 -51 23 -32 c32 -45 124
-102 211 -131 59 -19 95 -24 179 -24 96 0 243 18 268 34 7 4 8 43 5 107 l-6
101 -56 -15 c-166 -44 -344 7 -460 133 l-41 45 -38 -58z"/>
<path d="M9844 17718 c-38 -46 -112 -127 -165 -180 l-96 -97 32 -59 c36 -68
92 -146 128 -180 l25 -23 72 83 c71 82 220 280 220 292 0 4 -19 30 -41 59 -23
29 -57 82 -74 120 l-33 67 -68 -82z"/>
<path d="M8654 17670 c-38 -34 -70 -68 -72 -76 -6 -23 49 -113 91 -151 57 -51
139 -86 205 -87 l54 -1 34 93 34 92 -28 0 c-15 0 -46 9 -69 19 -42 20 -136
105 -164 150 l-15 24 -70 -63z"/>
<path d="M8451 17485 c-50 -49 -91 -95 -91 -103 0 -48 131 -152 232 -184 68
-20 179 -23 247 -5 42 12 44 14 62 72 10 33 19 61 19 61 0 1 -27 4 -59 7 -88
8 -170 49 -236 118 -31 32 -62 73 -69 91 l-14 32 -91 -89z"/>
<path d="M7324 17446 c-20 -63 -34 -121 -31 -128 16 -43 232 -115 372 -124
165 -11 275 26 377 128 32 32 38 45 38 79 0 34 -3 39 -17 35 -60 -19 -217 -46
-268 -46 -130 0 -318 66 -386 136 -18 19 -36 34 -41 34 -4 0 -24 -51 -44 -114z"/>
<path d="M8148 17492 c-26 -15 -28 -22 -28 -82 l0 -65 -68 -65 c-49 -47 -94
-78 -159 -110 -50 -25 -92 -50 -92 -55 -1 -16 94 -167 121 -193 l25 -22 78 43
78 43 47 114 c25 63 66 146 89 185 33 54 40 73 32 85 -6 8 -27 43 -47 78 -19
34 -39 62 -42 62 -4 0 -19 -8 -34 -18z"/>
<path d="M8996 17416 c-28 -72 -16 -143 31 -197 13 -15 18 -15 68 4 l54 20
-16 31 c-10 19 -18 58 -19 99 -1 37 -3 69 -5 71 -2 2 -25 6 -51 8 l-46 5 -16
-41z"/>
<path d="M9137 17433 c-15 -14 -6 -99 14 -141 18 -36 25 -43 43 -38 11 4 42 9
67 12 25 4 56 14 69 24 l23 17 -37 40 c-42 47 -161 104 -179 86z"/>
<path d="M9493 17366 c-113 -95 -333 -250 -410 -290 -18 -9 -33 -24 -33 -34 0
-35 136 -242 159 -242 3 0 19 24 34 54 59 112 181 222 280 251 47 14 50 13 88
-10 21 -14 42 -25 47 -25 4 0 26 18 47 40 29 30 37 44 30 54 -6 8 -33 41 -61
74 -29 33 -67 85 -85 116 -19 30 -36 55 -39 56 -3 0 -28 -20 -57 -44z"/>
<path d="M8286 17288 c-47 -74 -76 -134 -76 -156 0 -28 92 -110 154 -137 134
-59 254 -71 424 -40 l102 18 0 98 c0 54 -4 100 -8 103 -5 3 -45 -2 -90 -12
-69 -14 -91 -15 -154 -4 -97 16 -191 63 -256 129 -29 29 -55 53 -58 53 -2 0
-19 -24 -38 -52z"/>
<path d="M8937 17254 c-9 -33 -17 -66 -17 -72 0 -15 32 -15 64 -1 l24 11 -17
37 c-10 20 -22 47 -28 60 -9 22 -11 19 -26 -35z"/>
<path d="M7255 17199 c-9 -39 -14 -73 -11 -76 15 -15 217 -24 313 -13 89 9
272 55 261 65 -1 1 -30 -1 -63 -6 -33 -5 -89 -6 -125 -3 -87 8 -243 49 -303
79 -27 14 -50 25 -52 25 -2 0 -11 -32 -20 -71z"/>
<path d="M6960 17036 c-118 -40 -247 -86 -285 -100 l-71 -27 7 -62 c8 -84 30
-175 43 -186 12 -10 212 -31 292 -31 27 0 56 -5 64 -10 22 -14 -35 -68 -120
-115 -38 -21 -84 -50 -101 -64 -32 -27 -32 -27 -15 -59 9 -18 21 -32 27 -32 6
0 52 22 102 49 51 28 175 89 277 136 101 47 186 88 188 90 2 1 -13 25 -34 52
-71 92 -142 276 -156 406 l-3 28 -215 -75z"/>
<path d="M7701 17094 c-83 -26 -240 -37 -361 -24 -62 6 -114 9 -116 7 -8 -8
27 -167 51 -226 26 -68 111 -211 125 -211 12 0 123 51 332 152 l186 90 -48 61
c-27 33 -62 84 -77 113 -31 59 -29 58 -92 38z"/>
<path d="M9494 17066 c-95 -44 -162 -165 -172 -307 l-4 -75 71 -13 c40 -7 74
-11 76 -9 3 2 0 21 -6 42 -12 42 -6 95 18 171 15 48 36 82 97 160 24 30 27 38
15 46 -22 14 -40 11 -95 -15z"/>
<path d="M8167 17042 c-8 -20 -26 -74 -40 -119 l-25 -81 22 -20 c89 -82 370
-133 535 -98 80 17 128 44 198 114 34 34 43 51 43 78 0 40 2 40 -121 14 -120
-25 -225 -25 -322 -1 -99 26 -174 62 -230 111 l-45 40 -15 -38z"/>
<path d="M9572 17007 c-61 -78 -85 -139 -89 -227 -6 -118 16 -141 123 -125
l42 6 -15 47 c-26 85 1 196 64 264 l25 26 -42 27 c-63 40 -64 40 -108 -18z"/>
<path d="M8965 17009 c-29 -18 -30 -22 -27 -78 4 -58 3 -61 -39 -106 -55 -60
-117 -105 -207 -149 -39 -20 -72 -42 -72 -49 0 -29 121 -207 141 -207 16 0
187 99 316 182 110 71 121 81 111 98 -9 14 -9 25 -1 43 10 22 8 28 -24 58 -42
41 -114 140 -139 192 -20 42 -19 42 -59 16z"/>
<path d="M9713 16968 c-11 -13 -31 -43 -44 -68 -27 -54 -30 -146 -6 -202 l16
-37 52 15 c29 9 62 20 75 24 l22 9 -24 47 c-28 55 -32 135 -10 188 14 34 14
34 -16 40 -43 8 -42 9 -65 -16z"/>
<path d="M9322 16928 c-47 -62 -112 -178 -112 -200 0 -10 15 -19 40 -26 l40
-10 0 32 c0 44 26 140 55 204 13 28 22 52 21 52 -2 0 -22 -24 -44 -52z"/>
<path d="M9809 16949 c-19 -36 -14 -131 10 -177 11 -22 25 -43 30 -46 10 -6
99 22 106 34 3 4 -2 25 -11 46 -10 24 -14 58 -12 95 3 56 2 58 -26 63 -56 11
-85 7 -97 -15z"/>
<path d="M9944 16926 c-7 -28 20 -128 38 -144 14 -11 170 6 184 20 18 19 -52
91 -121 124 -66 31 -93 31 -101 0z"/>
<path d="M6450 16841 c-58 -26 -141 -66 -185 -88 l-79 -40 79 -7 c44 -4 138
-16 210 -26 71 -11 130 -18 131 -17 1 1 -6 34 -16 72 -11 39 -19 84 -20 100
-1 56 -8 56 -120 6z"/>
<path d="M8081 16752 c-5 -20 -13 -54 -16 -74 -7 -35 -5 -38 21 -45 16 -4 99
-8 184 -8 129 1 169 5 239 23 47 13 90 26 97 30 7 4 -40 7 -104 7 -129 1 -265
31 -361 80 l-50 25 -10 -38z"/>
<path d="M5999 16660 c-146 -36 -337 -132 -513 -258 -150 -108 -396 -361 -458
-473 -16 -27 -80 -87 -203 -186 l-180 -146 -5 77 -5 76 -76 -43 c-193 -110
-385 -297 -531 -518 -31 -46 -85 -112 -120 -146 l-63 -62 -108 -18 -107 -17
52 -13 c29 -7 71 -26 93 -41 74 -51 136 -173 88 -171 -12 0 -29 22 -48 62 -41
83 -92 119 -177 125 -35 2 -68 9 -75 14 -8 7 -37 6 -85 -2 -116 -18 -119 -20
-61 -42 81 -30 210 -157 196 -194 -10 -26 -32 -14 -58 30 -68 117 -209 188
-326 166 -29 -6 -54 -12 -56 -14 -10 -10 73 -67 112 -77 25 -6 48 -15 51 -20
3 -5 -12 -30 -34 -54 -22 -25 -56 -76 -75 -113 l-36 -69 -79 -21 c-97 -27
-112 -27 -112 -4 0 60 -94 172 -144 172 -31 0 -49 -65 -50 -179 l-2 -104 -39
-15 c-58 -22 -228 -21 -279 1 -22 10 -41 16 -42 14 -2 -2 -6 -35 -10 -73 -8
-81 12 -64 -209 -181 l-140 -74 59 6 c33 4 71 11 84 16 14 5 27 8 29 6 2 -3
-1 -24 -6 -48 -25 -105 -2 -396 38 -502 8 -21 9 -21 15 8 20 87 63 203 101
270 43 75 93 143 108 144 21 2 2 -54 -39 -115 -109 -163 -187 -361 -304 -772
-82 -286 -112 -356 -191 -435 -56 -55 -162 -117 -202 -117 -21 0 -34 -27 -20
-41 15 -15 132 26 199 69 130 84 180 171 294 506 124 366 198 536 302 689 l39
58 47 -42 c26 -23 46 -45 45 -50 -2 -4 -19 -34 -40 -66 -93 -146 -168 -340
-273 -708 -98 -344 -114 -379 -212 -471 -58 -55 -107 -84 -175 -104 -31 -9
-43 -19 -43 -32 0 -23 22 -23 93 1 126 44 228 131 290 248 19 37 72 175 117
307 100 293 147 414 209 532 54 102 132 224 144 224 4 0 43 -20 86 -45 82 -47
208 -108 273 -131 l38 -13 -26 34 c-37 49 -75 158 -81 238 -3 37 -4 67 -1 67
3 0 26 -9 50 -20 96 -42 181 -53 408 -53 213 0 326 10 447 40 69 17 73 27 16
38 -55 10 -151 58 -205 103 l-46 39 211 0 c148 -1 247 4 328 16 110 16 326 65
379 85 l25 10 -25 6 c-14 3 -66 15 -116 26 -118 25 -324 98 -324 114 0 2 24
18 53 37 l52 33 -76 7 c-42 3 -93 12 -115 19 -57 18 -150 69 -171 93 -13 15
-9 14 17 -6 89 -66 221 -101 330 -87 27 4 50 3 50 -1 0 -4 -23 -27 -50 -52
l-50 -45 56 -22 c156 -58 284 -80 378 -64 33 5 38 4 33 -9 -6 -16 11 -27 44
-27 18 0 19 1 3 25 -16 25 -16 25 12 25 22 0 35 -9 51 -33 13 -18 33 -43 44
-56 29 -31 44 -15 62 64 l14 60 59 17 c82 23 85 22 120 -25 23 -31 33 -59 39
-102 4 -33 9 -63 11 -66 2 -4 33 9 68 27 l65 35 -49 48 c-107 107 -78 147 173
241 135 51 191 59 253 35 36 -14 53 -29 79 -69 75 -117 233 -179 398 -155 89
13 99 9 128 -56 l19 -40 0 105 c0 58 -5 125 -11 149 -8 34 -7 46 3 52 36 23
50 -22 51 -166 1 -132 -15 -204 -75 -325 -60 -124 -170 -231 -299 -294 -97
-47 -132 -58 -137 -42 -2 5 20 17 47 27 139 49 279 171 347 304 23 44 45 91
49 105 7 23 6 23 -23 -8 -56 -60 -208 -109 -375 -119 -93 -6 -99 -7 -133 -40
-74 -69 -178 -103 -318 -103 -49 0 -184 12 -300 26 -394 48 -712 17 -912 -91
-34 -19 -118 -73 -185 -120 -286 -201 -527 -280 -894 -294 -140 -6 -200 -12
-228 -24 -21 -9 -41 -16 -45 -16 -22 3 -34 -6 -66 -55 -20 -30 -33 -61 -30
-69 3 -8 -1 -28 -9 -44 -34 -65 -49 -305 -26 -429 17 -100 17 -100 48 -57 56
77 61 76 61 -18 0 -46 7 -113 16 -149 29 -125 136 -318 277 -500 72 -93 191
-230 195 -225 2 2 -3 25 -12 52 -38 118 -57 322 -38 428 l7 39 43 -71 c132
-223 368 -369 698 -433 150 -29 156 -28 92 21 -166 129 -302 306 -378 490 -34
81 -65 187 -58 195 3 3 21 -4 40 -16 35 -20 149 -63 154 -57 2 2 -6 28 -17 58
-19 49 -40 239 -27 239 3 0 31 -9 64 -21 71 -24 218 -58 256 -59 l27 0 -39 63
c-21 34 -50 91 -63 127 -28 73 -53 177 -45 185 3 3 58 -15 123 -40 66 -24 120
-43 121 -42 2 1 -10 29 -26 62 -16 33 -34 89 -40 125 -7 36 -14 70 -15 76 -2
7 -110 -17 -300 -68 -260 -70 -323 -83 -303 -63 5 5 40 15 448 130 672 190
674 190 945 161 411 -45 502 -44 568 5 23 16 31 18 43 8 33 -27 -49 -77 -146
-88 l-55 -6 275 -122 c324 -143 431 -186 560 -219 104 -27 299 -42 339 -27 23
9 23 10 -20 35 -67 40 -154 135 -194 212 -51 98 -48 100 130 93 132 -5 200
-15 570 -82 190 -34 391 -43 512 -21 194 34 311 100 455 259 175 193 279 290
353 328 140 73 250 97 474 106 l154 6 -24 20 c-78 63 -227 107 -362 107 -124
0 -240 -27 -517 -120 -295 -99 -396 -121 -539 -122 -120 0 -195 14 -283 54
-89 41 -93 64 -10 73 31 3 98 10 147 15 381 43 719 182 936 387 92 87 140 152
261 357 154 260 262 360 440 405 l70 18 -48 12 c-67 17 -207 15 -290 -4 -38
-8 -155 -45 -260 -81 -214 -73 -331 -94 -424 -78 -45 7 -55 13 -55 29 0 14 9
21 36 27 166 34 299 136 608 466 79 83 180 181 224 217 150 120 325 193 517
214 51 6 94 12 96 14 9 9 -201 99 -272 117 -102 26 -245 27 -346 1 -42 -11
-145 -46 -229 -79 -85 -33 -185 -70 -224 -82 -130 -41 -352 -37 -369 6 -5 13
29 34 55 34 22 0 114 54 154 91 40 37 95 123 85 132 -3 3 -52 -6 -110 -19 -58
-13 -191 -39 -295 -58 -184 -34 -349 -73 -410 -96 l-30 -11 45 -37 c25 -20
126 -115 225 -212 99 -96 219 -209 268 -250 115 -98 105 -103 -154 -85 -104 7
-123 6 -185 -13 -87 -27 -131 -55 -274 -176 -127 -108 -263 -202 -355 -246
-33 -16 -121 -46 -195 -68 -74 -22 -193 -61 -265 -86 -200 -70 -269 -81 -487
-81 -135 0 -190 3 -199 12 -7 7 -11 15 -8 17 3 3 52 0 109 -6 186 -19 420 17
630 97 52 20 149 52 215 71 209 61 317 123 545 313 208 173 320 217 494 192
45 -6 99 -11 121 -11 l40 0 -82 44 c-45 25 -165 102 -265 171 -203 141 -344
215 -461 245 -233 58 -535 66 -675 17 -144 -50 -268 -145 -422 -322 -107 -123
-165 -172 -255 -215 -67 -32 -90 -36 -101 -19 -9 15 13 33 66 53 75 30 162 99
256 206 247 283 448 381 749 367 248 -12 475 -69 629 -157 39 -23 149 -96 244
-163 250 -177 281 -191 152 -71 -58 53 -134 127 -170 163 -170 173 -258 245
-371 301 -285 144 -850 154 -1236 21 -115 -40 -185 -84 -274 -171 -78 -78
-127 -153 -159 -243 -10 -28 -22 -50 -27 -47 -13 8 -5 41 31 115 120 252 326
377 723 440 46 7 43 1 93 219 43 186 120 290 295 391 55 32 94 60 88 62 -6 2
-38 -1 -70 -7 -32 -6 -168 -15 -303 -20 -359 -15 -468 -39 -679 -151 -337
-179 -472 -340 -526 -624 -22 -116 -22 -116 -40 -109 -21 9 -19 46 10 160 71
279 210 432 553 608 210 107 325 131 672 142 124 4 245 10 270 13 42 7 40 8
-40 15 -47 4 -181 21 -298 37 -252 34 -399 37 -513 9z m-819 -1080 c-84 -11
-165 -37 -259 -85 -77 -38 -96 -44 -181 -50 -187 -14 -262 -50 -349 -165 -30
-39 -58 -73 -64 -77 -5 -3 -43 -12 -84 -19 -138 -24 -259 -99 -302 -187 -19
-39 -19 -47 -7 -92 37 -141 131 -230 283 -270 167 -44 343 7 604 176 63 40
141 84 174 98 82 34 207 38 412 15 215 -24 205 -25 215 11 12 47 28 183 22
198 -3 10 -15 5 -41 -19 -19 -18 -49 -38 -65 -45 -27 -11 -32 -10 -43 5 -21
29 -38 172 -32 272 l5 94 -26 -6 c-166 -35 -332 -135 -530 -318 -51 -48 -98
-84 -104 -80 -15 10 -5 113 15 153 9 19 15 36 13 38 -9 9 -190 -59 -285 -107
-87 -43 -134 -70 -261 -148 -65 -40 6 13 90 68 159 103 420 220 491 220 24 0
24 -3 -7 -50 -15 -23 -29 -60 -32 -87 l-5 -48 87 82 c205 194 407 310 550 316
46 2 51 0 49 -18 -13 -104 -14 -210 -3 -273 l12 -72 30 17 c17 10 46 42 65 72
33 49 36 52 52 37 35 -36 7 -364 -32 -379 -7 -2 -79 4 -162 14 -82 10 -206 18
-276 19 l-125 0 -11 -132 c-18 -211 -66 -304 -192 -365 -51 -26 -66 -28 -171
-28 -94 0 -127 4 -181 23 -69 24 -108 46 -98 56 3 4 26 -2 51 -13 75 -32 150
-44 244 -39 168 8 263 91 293 253 12 63 15 225 5 225 -4 0 -33 -15 -65 -32
l-59 -33 0 -49 c0 -69 -18 -120 -58 -166 -38 -45 -89 -75 -144 -85 -49 -9
-139 18 -180 54 -33 28 -34 28 -140 23 -90 -4 -117 -1 -180 18 -172 52 -283
176 -295 334 -5 59 -4 63 34 111 48 61 97 99 166 129 56 25 141 46 186 46 23
0 38 12 81 69 94 123 185 168 364 177 90 5 110 10 189 45 104 48 215 78 277
77 l45 -1 -55 -7z m-1489 -1266 c30 -9 115 -45 189 -79 74 -35 147 -67 162
-70 31 -8 42 -29 23 -45 -17 -14 -69 7 -232 96 -116 63 -195 94 -240 94 -13 0
-23 5 -23 10 0 15 59 12 121 -6z"/>
<path d="M4580 14631 c-25 -10 -54 -21 -65 -25 -19 -7 -19 -9 8 -32 31 -27 45
-29 80 -13 37 17 65 90 35 88 -7 0 -33 -8 -58 -18z"/>
<path d="M8551 16619 c-82 -33 -304 -47 -435 -29 -38 6 -71 8 -74 5 -3 -2 0
-37 7 -77 15 -93 64 -214 120 -299 l44 -67 46 20 c85 37 471 227 471 231 0 3
-20 29 -44 57 -24 28 -58 78 -76 111 -17 32 -32 59 -33 58 -1 0 -13 -5 -26
-10z"/>
<path d="M7755 16546 c-318 -111 -335 -118 -335 -137 0 -40 32 -191 56 -263
25 -78 85 -204 121 -258 l19 -27 84 45 c80 43 356 176 447 215 l42 18 -53 79
c-30 44 -67 115 -84 158 -26 69 -36 107 -58 222 -2 12 -10 22 -17 21 -6 0
-106 -33 -222 -73z"/>
<path d="M7340 16392 c-19 -9 -101 -47 -182 -85 -135 -64 -148 -73 -148 -96 0
-37 37 -166 66 -232 l25 -56 79 -17 c100 -21 189 -50 263 -85 l57 -28 43 25
c23 14 44 26 45 28 2 1 -10 23 -27 48 -75 109 -136 264 -169 428 l-17 85 -35
-15z"/>
<path d="M6706 16359 c-15 -17 -36 -50 -48 -72 l-20 -40 33 22 c19 12 49 29
67 38 37 19 37 19 13 56 l-18 28 -27 -32z"/>
<path d="M6864 16148 c-93 -58 -217 -145 -274 -192 l-26 -21 246 0 246 0 -29
68 c-15 37 -36 99 -46 138 l-18 69 -99 -62z"/>
<path d="M10580 15270 c-422 -22 -786 -73 -1148 -160 -162 -39 -332 -88 -332
-95 0 -2 51 -20 113 -40 486 -161 885 -375 1272 -684 l130 -104 115 21 c215
39 317 47 615 47 289 0 400 -8 695 -46 627 -80 1303 -264 1695 -460 133 -67
327 -193 450 -292 97 -78 294 -276 371 -372 74 -94 208 -293 245 -367 16 -32
33 -58 37 -56 73 39 166 75 242 96 83 22 116 25 270 26 205 1 350 -16 350 -43
0 -9 -25 -36 -56 -61 -173 -141 -317 -383 -368 -621 l-5 -25 77 12 c169 28
442 27 559 -2 36 -9 27 -29 -24 -56 -59 -30 -107 -91 -172 -218 -133 -260
-190 -532 -147 -712 7 -32 11 -60 8 -63 -3 -3 10 -19 29 -35 26 -23 18 -20
-29 11 -70 46 -163 79 -222 79 -37 0 -38 1 -115 121 -87 136 -87 135 -233 171
-168 41 -357 28 -458 -33 -17 -11 -39 -19 -48 -19 -30 0 -13 34 29 57 133 73
362 71 572 -5 l75 -27 72 -120 72 -119 63 -13 c34 -7 83 -22 107 -32 l45 -20
-8 37 c-4 20 -8 98 -7 172 0 106 5 153 23 220 50 186 168 440 245 524 25 27
39 49 33 53 -23 14 -362 6 -462 -11 -55 -10 -104 -19 -110 -19 -20 -3 -6 112
24 202 61 183 139 309 274 448 l89 91 -79 9 c-43 4 -143 7 -223 6 -119 -1
-162 -6 -241 -26 -229 -60 -399 -192 -481 -374 -49 -109 -68 -98 -68 42 0 111
24 239 64 346 18 49 30 89 26 89 -40 0 -245 -93 -339 -154 -229 -148 -361
-379 -402 -702 -15 -120 -7 -400 16 -587 12 -97 14 -142 7 -149 -15 -15 -94
33 -153 92 l-47 47 -6 -56 c-14 -120 41 -405 110 -571 50 -120 52 -130 22
-130 -14 0 -46 11 -71 24 -26 13 -47 22 -47 19 0 -2 13 -32 29 -67 38 -85 97
-170 163 -234 l55 -53 12 97 c13 106 24 136 46 128 18 -7 18 0 0 -99 -19 -104
-19 -241 -1 -293 31 -86 182 -287 302 -403 83 -79 141 -119 237 -164 96 -46
169 -63 307 -73 l115 -9 -90 -1 c-271 -3 -501 110 -702 346 -45 54 -69 73
-121 96 -72 31 -71 31 -257 -4 -157 -30 -475 -38 -642 -16 -303 40 -582 146
-805 306 -35 25 -107 88 -161 142 -87 85 -97 99 -88 116 9 16 6 31 -10 68 -67
159 -116 384 -209 967 -98 620 -172 935 -300 1272 -55 144 -119 287 -139 310
-10 11 -35 52 -55 90 -111 206 -338 504 -551 723 -330 341 -704 615 -1123 826
-109 54 -376 160 -547 216 -71 23 -135 49 -141 57 -15 18 -152 57 -358 103
l-48 11 -87 -84 c-103 -99 -178 -157 -263 -203 -57 -31 -60 -34 -32 -34 46 0
181 37 315 86 190 70 268 87 394 88 129 1 201 -17 267 -67 72 -55 65 -62 -64
-62 -109 0 -115 -1 -178 -34 -110 -57 -190 -148 -313 -355 -59 -99 -104 -183
-100 -187 5 -4 60 -28 123 -55 915 -382 1712 -1171 2098 -2080 87 -202 167
-445 298 -894 175 -603 250 -812 382 -1076 289 -576 715 -919 1326 -1069 242
-59 346 -70 661 -69 207 0 314 4 410 17 573 77 1143 279 1555 552 108 71 195
114 207 101 4 -4 -105 -85 -197 -146 -36 -24 -66 -44 -68 -45 -1 -1 9 -49 23
-107 14 -58 33 -158 43 -223 l18 -117 97 102 c54 56 141 152 193 213 53 62 99
113 102 114 4 1 42 -70 86 -158 68 -138 77 -164 72 -194 -13 -67 -85 -126
-381 -310 -60 -37 -121 -80 -135 -95 -18 -21 -257 -243 -342 -319 -3 -3 -13
-112 -22 -241 -9 -129 -18 -249 -20 -267 -6 -42 51 -139 126 -214 55 -56 122
-89 180 -89 27 0 23 10 -37 80 -30 36 -63 84 -72 107 -17 40 -20 43 -58 43
-22 0 -54 9 -72 20 -40 24 -43 33 -5 19 39 -15 145 -2 169 21 14 12 22 38 27
79 4 34 13 81 20 105 l13 44 -44 37 c-54 45 -94 119 -74 138 10 10 15 8 27 -7
8 -11 14 -27 14 -36 0 -18 52 -104 69 -114 6 -4 102 43 213 103 111 61 207
111 213 111 6 0 19 15 27 34 28 58 80 107 182 174 67 43 101 61 108 54 19 -19
1 -37 -93 -89 -52 -28 -108 -67 -126 -85 -18 -18 -76 -116 -128 -218 -95 -181
-97 -188 -126 -332 l-30 -147 65 -251 c54 -211 62 -255 53 -279 -15 -40 -4
-59 50 -84 42 -19 65 -22 183 -22 126 0 139 2 192 27 51 24 148 107 148 127 0
4 -24 6 -54 3 -35 -3 -72 1 -102 12 l-46 16 -48 -43 c-72 -64 -153 -82 -245
-53 -39 13 -39 13 26 8 39 -3 82 1 105 8 48 16 144 111 144 143 0 47 -23 99
-58 134 -33 33 -37 44 -43 107 l-7 71 49 78 c27 43 49 80 49 82 0 3 -10 5 -21
5 -66 0 -169 63 -169 104 0 27 34 18 53 -14 22 -36 61 -65 108 -78 31 -8 38
-7 56 14 28 31 64 30 102 -2 37 -31 38 -24 12 71 -50 182 -48 257 13 373 35
68 121 182 136 182 29 0 17 -34 -33 -95 -85 -102 -119 -175 -124 -259 -5 -73
35 -298 107 -615 31 -137 140 -507 162 -549 7 -13 33 -36 58 -50 42 -26 52
-27 175 -27 140 0 170 9 242 69 35 30 79 108 88 159 l7 38 -48 -26 c-37 -20
-60 -26 -96 -23 l-46 3 -22 -52 c-23 -54 -87 -135 -124 -155 -14 -8 -9 2 16
30 44 49 61 81 77 147 7 28 17 60 21 72 16 39 -41 160 -138 296 l-34 47 -29
-24 c-34 -29 -110 -59 -135 -54 -31 6 -22 33 11 36 67 7 135 33 151 58 22 33
15 218 -11 282 l-17 42 67 181 c37 99 77 192 88 206 31 39 131 100 223 134
l82 32 -1 46 c-1 31 9 73 33 131 26 67 34 100 34 154 1 73 15 95 37 55 19 -37
3 -114 -46 -218 -25 -54 -45 -107 -45 -119 0 -13 14 -49 30 -82 17 -33 28 -60
26 -60 -3 0 4 -19 14 -42 43 -95 17 -182 -85 -285 l-71 -73 66 0 c80 0 125 12
178 48 70 46 119 133 136 237 6 37 4 42 -27 63 -43 28 -101 29 -147 1 -34 -21
-35 -21 -17 -1 44 49 123 65 178 36 17 -8 32 -14 33 -12 1 2 30 38 64 80 59
73 63 81 72 151 18 147 -16 264 -105 352 -61 62 -100 81 -284 140 -220 70
-317 87 -518 91 -95 1 -182 5 -193 9 -30 10 -21 41 10 37 14 -1 81 -6 150 -12
69 -5 149 -14 179 -20 30 -5 56 -8 58 -6 2 2 -33 46 -77 97 -78 91 -90 112
-326 579 l-245 485 26 112 c109 479 97 977 -36 1507 -147 583 -462 1185 -890
1701 -103 124 -423 446 -544 547 -796 665 -1708 1020 -2905 1132 -393 37 -955
53 -1280 36z m5039 -5496 c65 -19 137 -86 176 -165 31 -63 25 -57 -30 25 -70
105 -155 140 -282 116 -89 -17 -173 -17 -184 1 -14 23 2 28 106 32 55 1 114 4
131 5 17 1 54 -5 83 -14z m-522 -270 c-3 -3 -12 -4 -19 -1 -8 3 -5 6 6 6 11 1
17 -2 13 -5z m-59 -11 c-10 -2 -26 -2 -35 0 -10 3 -2 5 17 5 19 0 27 -2 18 -5z
m607 -965 c2 -7 11 -40 20 -73 12 -42 28 -70 55 -97 43 -44 33 -50 -18 -11
-37 28 -104 156 -95 180 7 17 32 17 38 1z m761 -654 c45 -35 98 -53 159 -54
37 -1 45 -4 30 -10 -73 -32 -260 25 -242 74 8 21 12 21 53 -10z m-548 -369
c30 -16 63 -25 92 -25 33 0 41 -3 30 -10 -23 -15 -91 -12 -143 6 -49 17 -62
28 -52 44 9 15 21 12 73 -15z"/>
<path d="M2700 15044 c-157 -30 -281 -112 -335 -221 -25 -50 -29 -70 -29 -143
0 -75 3 -91 28 -137 47 -86 136 -135 251 -137 39 0 86 2 106 7 l36 7 7 95 c4
53 13 112 20 132 17 48 54 76 89 68 45 -12 113 -80 137 -139 l23 -53 65 16
c66 17 66 18 107 83 22 37 55 82 73 101 l33 34 -41 12 c-46 14 -104 61 -122
99 -16 34 -133 113 -216 147 -62 25 -177 39 -232 29z"/>
<path d="M5495 14312 c-113 -40 -223 -92 -229 -109 -17 -42 156 -189 298 -253
108 -49 179 -64 311 -63 132 1 234 22 323 67 79 40 104 96 65 145 -17 21 -21
21 -72 10 -103 -22 -255 11 -345 75 -26 18 -68 60 -94 92 l-48 59 -64 3 c-50
2 -83 -4 -145 -26z"/>
<path d="M8457 14135 c-92 -98 -150 -144 -271 -218 -87 -52 -89 -54 -112 -116
-13 -35 -23 -65 -21 -67 1 -2 68 19 147 46 202 69 311 92 445 91 129 0 234
-23 326 -72 70 -37 153 -112 147 -131 -4 -10 -54 -14 -219 -19 -170 -5 -231
-11 -298 -28 -128 -33 -228 -90 -325 -185 -142 -142 -278 -296 -264 -300 7 -3
49 -12 93 -21 102 -21 280 -70 368 -102 l67 -24 113 67 c311 186 513 354 620
517 45 67 107 198 101 209 -7 11 -149 103 -258 167 -164 97 -535 273 -569 270
-7 0 -47 -38 -90 -84z"/>
<path d="M11125 14213 c-124 -6 -408 -42 -452 -58 -7 -2 63 -80 155 -172 183
-183 301 -320 431 -501 87 -122 231 -358 231 -379 0 -8 15 -13 40 -13 54 0
329 -36 470 -61 343 -61 679 -171 909 -296 341 -185 640 -458 861 -784 l67
-99 7 87 c6 70 38 217 71 329 5 16 -15 48 -86 140 -51 65 -112 142 -136 170
-44 52 -50 64 -34 64 10 0 157 -175 231 -273 l43 -58 39 72 c117 216 300 359
586 459 51 18 92 36 92 40 0 12 -81 123 -153 210 -267 319 -603 561 -997 718
-673 268 -1682 440 -2375 405z"/>
<path d="M5050 14078 c-10 -24 -27 -71 -36 -106 -16 -56 -20 -63 -38 -58 -12
3 -37 6 -57 6 -34 0 -38 3 -69 65 -19 37 -37 68 -42 71 -5 3 -31 -2 -58 -11
-48 -16 -49 -17 -61 -71 -14 -61 -20 -69 -67 -77 -31 -6 -34 -4 -54 38 -12 25
-28 43 -34 41 -7 -3 -39 -10 -73 -17 l-61 -12 -12 -58 c-6 -32 -17 -60 -23
-63 -6 -2 -24 21 -39 50 -20 39 -33 53 -45 50 -9 -3 -44 -8 -77 -11 -59 -6
-62 -8 -68 -37 -10 -52 -11 -51 72 -46 l77 6 -84 -40 c-114 -53 -231 -85 -380
-104 -69 -9 -128 -18 -130 -20 -2 -2 1 -34 7 -71 10 -57 9 -70 -3 -82 -13 -13
-18 -12 -42 11 -60 54 -143 110 -158 104 -11 -4 -15 -20 -14 -58 0 -55 21
-191 33 -219 5 -12 -5 -27 -35 -53 l-43 -36 35 6 c161 30 388 134 559 256 164
116 233 154 336 188 210 67 487 82 814 41 305 -37 437 -25 540 51 l44 31 -86
23 c-95 25 -195 72 -273 128 -27 19 -52 32 -55 27 -3 -4 -33 -23 -68 -42 -58
-31 -62 -36 -56 -61 9 -42 -11 -34 -24 10 -18 57 -101 192 -118 192 -8 0 -24
-19 -34 -42z"/>
<path d="M3925 13878 c21 -11 53 -24 70 -29 l30 -8 -35 29 c-24 20 -46 29 -70
29 l-35 0 40 -21z"/>
<path d="M7985 13819 c-146 -62 -379 -120 -547 -135 -43 -4 -78 -10 -78 -14 0
-14 94 -32 190 -37 150 -8 436 52 459 96 12 21 52 121 48 120 -1 0 -33 -14
-72 -30z"/>
<path d="M9389 13733 c-89 -237 -299 -449 -664 -675 -71 -45 -132 -82 -133
-84 -2 -1 20 -13 50 -25 157 -66 391 -206 513 -308 27 -22 55 -41 61 -41 20 0
144 69 223 123 173 120 311 281 411 480 33 65 60 124 60 131 0 13 -115 122
-242 228 -82 69 -252 198 -262 198 -3 0 -11 -12 -17 -27z"/>
<path d="M3244 13495 c-18 -15 -17 -17 26 -56 25 -22 54 -45 64 -51 16 -9 18
-8 12 8 -4 11 -12 40 -17 66 -10 43 -13 48 -38 48 -15 0 -36 -7 -47 -15z"/>
<path d="M3013 13448 c-46 -33 -73 -87 -80 -162 -3 -36 -4 -66 -2 -66 2 0 20
5 39 11 19 6 123 14 230 19 107 4 203 11 212 15 15 6 13 13 -19 50 -30 37 -49
48 -117 70 -45 14 -86 28 -93 31 -7 3 -16 -16 -24 -53 l-12 -58 -18 40 c-10
22 -19 49 -19 60 0 26 -10 39 -37 54 -27 14 -23 15 -60 -11z"/>
<path d="M9916 13274 c-54 -145 -180 -330 -310 -458 -82 -79 -245 -195 -323
-230 l-42 -19 74 -78 c64 -69 109 -129 178 -242 20 -31 11 -32 182 15 129 35
311 103 444 165 108 50 293 153 335 187 l29 22 -62 93 c-116 173 -259 351
-413 515 l-74 80 -18 -50z"/>
<path d="M7890 13063 c-30 -20 -97 -52 -150 -70 -119 -43 -350 -158 -517 -259
-437 -263 -827 -582 -1382 -1129 -428 -422 -640 -680 -861 -1050 -89 -149
-233 -441 -295 -600 -214 -544 -323 -1154 -300 -1680 5 -93 9 -201 10 -240 1
-55 13 -104 54 -224 237 -699 622 -1270 1161 -1720 112 -94 114 -93 71 1 -98
213 -174 469 -212 719 -60 385 5 1275 125 1744 101 390 277 697 615 1073 51
56 97 102 102 102 4 0 18 32 29 70 65 219 207 505 373 755 176 264 367 487
701 820 540 539 1063 965 1519 1238 l107 65 -92 60 c-175 112 -412 219 -628
281 -116 33 -330 81 -357 80 -10 0 -43 -17 -73 -36z"/>
<path d="M6428 13063 c-17 -4 -17 -7 1 -42 44 -86 187 -210 261 -226 31 -7 45
-29 27 -43 -44 -34 -258 -43 -397 -16 -45 8 -139 35 -208 60 -70 25 -136 48
-148 51 -17 4 -46 -22 -149 -134 -498 -538 -825 -997 -1094 -1533 -247 -492
-378 -919 -453 -1475 -20 -151 -23 -211 -23 -540 0 -398 13 -561 69 -830 l22
-110 7 240 c3 132 11 285 17 340 79 738 349 1461 764 2050 172 244 378 476
712 804 622 610 1078 966 1572 1228 l113 60 -168 6 c-119 4 -206 13 -298 32
-299 58 -573 93 -627 78z"/>
<path d="M14667 12774 c-36 -70 -64 -171 -78 -269 -13 -104 -9 -119 19 -71 33
56 88 118 142 161 l49 39 -19 37 c-11 20 -35 63 -54 94 l-34 58 -25 -49z"/>
<path d="M10427 12565 c-196 -132 -528 -277 -801 -350 -49 -13 -90 -26 -92
-27 -1 -2 12 -44 31 -94 19 -50 45 -128 58 -172 13 -45 26 -84 30 -88 8 -9
239 23 381 53 212 44 480 135 646 218 l70 35 -74 149 c-64 127 -172 321 -179
321 -1 0 -33 -20 -70 -45z"/>
<path d="M9412 12187 c-47 -67 -99 -175 -121 -257 -25 -90 -28 -252 -7 -324
15 -48 15 -48 -6 -29 -35 31 -126 176 -157 250 -17 39 -41 110 -53 158 -22 87
-22 87 -39 63 -10 -12 -45 -68 -78 -123 -116 -197 -161 -339 -161 -518 0 -316
145 -598 489 -950 74 -75 132 -140 129 -143 -23 -22 -176 -10 -263 22 -19 7
-19 6 1 -17 12 -13 39 -51 62 -84 49 -75 160 -187 267 -270 78 -61 240 -165
257 -165 4 0 8 -4 8 -9 0 -9 -77 -29 -135 -34 -29 -2 -28 -4 35 -45 55 -35
138 -73 213 -96 13 -4 17 -16 17 -50 0 -88 -71 -132 -345 -211 -234 -69 -213
-61 -190 -71 25 -11 245 -12 303 -1 35 6 44 4 49 -9 11 -29 -19 -35 -152 -31
-95 3 -152 10 -211 26 -116 32 -138 50 -178 146 -94 230 -190 442 -208 461
-40 44 -132 76 -239 81 -54 3 -99 3 -99 0 0 -4 -20 -81 -45 -173 -25 -91 -45
-167 -45 -169 0 -2 8 -1 19 2 34 9 33 -15 -4 -83 -47 -89 -46 -95 9 -88 25 4
56 4 70 0 41 -10 95 -64 102 -102 8 -43 26 -44 69 -1 26 26 41 57 66 140 18
59 34 105 36 103 5 -5 -46 -184 -59 -211 -21 -41 -63 -75 -99 -81 -21 -4 -41
-14 -44 -23 -4 -9 -9 -60 -12 -113 -3 -54 -9 -98 -14 -98 -19 0 -123 132 -156
197 -27 55 -37 88 -41 142 -4 62 -1 76 26 135 23 48 27 66 17 70 -7 2 -70 46
-141 96 -114 82 -143 98 -268 145 l-141 52 -245 -22 c-135 -13 -246 -24 -248
-24 -1 -1 7 -20 19 -43 36 -71 38 -199 4 -244 -14 -18 -14 -17 -5 9 22 63 4
168 -39 223 -11 14 -17 33 -14 44 7 27 -37 48 -71 32 -53 -24 -114 -223 -103
-336 9 -88 33 -150 80 -202 l42 -46 1 49 c1 30 12 72 28 106 l27 56 72 -1 c74
-1 104 8 144 45 20 18 31 19 99 14 83 -8 75 -2 207 -124 70 -65 63 -118 -21
-155 -38 -17 -79 -22 -227 -29 -209 -10 -637 -64 -679 -86 l-29 -15 33 -16
c67 -32 131 -161 129 -258 -1 -36 -2 -34 -15 23 -17 79 -35 114 -83 162 -43
43 -87 57 -100 32 -24 -44 -44 -143 -44 -216 0 -86 15 -135 58 -191 24 -32
103 -87 141 -98 l22 -7 -20 65 c-19 64 -19 66 -1 103 17 36 21 38 78 44 74 7
143 29 262 84 99 47 123 73 123 138 0 26 -6 39 -25 51 -28 18 -33 41 -10 49
21 9 65 -49 65 -84 0 -34 -13 -64 -43 -96 -11 -13 -19 -25 -16 -27 2 -2 39
-11 81 -20 85 -18 141 -19 205 -7 41 8 48 5 200 -83 87 -51 187 -111 223 -134
71 -46 171 -82 229 -82 20 0 67 9 106 20 74 21 108 19 103 -8 -4 -21 -89 -36
-198 -36 -78 0 -135 19 -218 74 l-32 22 24 -49 c24 -47 58 -161 70 -233 6 -35
6 -35 51 -32 25 2 59 -1 76 -7 50 -17 219 -143 219 -163 0 -31 -27 -20 -97 40
-140 121 -158 126 -298 95 -71 -15 -87 -24 -66 -37 15 -10 22 -79 11 -115 -5
-19 -24 -49 -41 -67 l-32 -33 62 -69 62 -70 57 15 c41 11 113 16 252 18 l194
1 31 42 c29 41 162 299 284 552 58 121 123 219 148 228 7 2 16 -3 19 -12 4
-10 -12 -37 -44 -73 -51 -59 -147 -201 -140 -208 2 -2 50 25 108 60 103 62
115 66 654 235 302 94 567 180 589 191 37 19 38 21 23 42 -282 390 -478 880
-636 1590 -38 174 -83 435 -109 642 -41 319 -95 585 -156 765 -33 99 -93 230
-105 230 -4 0 -21 -20 -38 -43z m-1435 -2464 c-7 -69 -33 -112 -83 -140 -53
-31 -67 -29 -21 2 48 34 69 75 66 134 -3 54 5 73 28 64 12 -5 14 -16 10 -60z
m33 -624 c0 -65 -22 -112 -74 -153 -64 -51 -75 -53 -30 -5 55 59 64 78 64 142
0 56 4 67 27 67 9 0 13 -15 13 -51z"/>
<path d="M10630 12050 c-253 -116 -540 -200 -819 -241 -80 -12 -147 -23 -149
-24 -4 -3 45 -236 53 -243 12 -12 286 -14 419 -2 154 13 317 41 452 75 118 31
293 90 308 105 7 7 2 32 -14 77 -39 114 -111 298 -118 304 -4 3 -63 -20 -132
-51z"/>
<path d="M10727 11633 c-270 -91 -532 -134 -834 -137 -197 -1 -182 8 -164 -97
5 -30 20 -130 32 -223 l22 -169 236 6 c309 8 484 33 705 98 76 23 264 101 301
125 l23 15 -17 62 c-77 268 -115 377 -130 375 -9 0 -87 -25 -174 -55z"/>
<path d="M10960 11174 c-245 -123 -563 -190 -962 -201 -115 -3 -208 -8 -208
-10 0 -13 101 -504 110 -536 l11 -38 70 5 c38 4 102 8 142 11 200 16 481 77
693 153 97 35 337 138 373 161 10 7 1 49 -49 217 -34 115 -67 226 -72 247 -6
20 -14 36 -17 35 -3 -1 -44 -21 -91 -44z"/>
<path d="M11105 10649 c-215 -105 -476 -194 -700 -238 -139 -28 -323 -51 -405
-51 -38 0 -71 -4 -74 -8 -6 -10 33 -159 89 -339 45 -144 20 -132 230 -108 328
38 608 108 865 217 83 35 220 102 258 126 10 7 5 26 -21 88 -19 43 -56 140
-82 214 -27 74 -51 138 -54 141 -3 4 -51 -16 -106 -42z"/>
<path d="M13675 10455 c-134 -63 -320 -117 -540 -156 -172 -31 -504 -38 -645
-15 -55 10 -127 26 -158 36 l-57 20 40 -36 c65 -57 193 -139 303 -193 262
-131 553 -189 892 -178 164 5 230 12 358 38 l54 11 -74 43 c-80 46 -181 132
-175 148 1 5 39 20 82 32 44 13 102 33 129 44 l49 21 -60 63 c-32 34 -74 83
-92 110 -17 26 -33 47 -34 46 -1 0 -33 -16 -72 -34z"/>
<path d="M13935 10227 c-11 -6 -60 -25 -109 -42 l-88 -32 38 -30 c71 -56 195
-121 282 -148 21 -6 20 -2 -16 52 -43 63 -72 137 -72 183 0 33 -5 35 -35 17z"/>
<path d="M11230 10148 c-299 -151 -690 -256 -1087 -293 -40 -4 -73 -8 -73 -9
0 -8 86 -220 125 -308 41 -94 50 -108 71 -108 13 0 101 13 196 30 365 62 743
147 943 210 89 29 245 87 253 95 2 1 -32 56 -75 122 -43 66 -103 169 -133 230
-30 61 -57 111 -60 110 -3 0 -75 -36 -160 -79z"/>
<path d="M11650 9731 c-36 -21 -226 -86 -364 -126 -229 -65 -682 -163 -973
-210 -24 -4 -43 -9 -43 -12 0 -3 17 -35 37 -71 106 -191 281 -427 312 -418 9
3 102 27 206 55 428 113 793 251 1082 409 l102 56 -37 30 c-66 54 -183 170
-235 234 -51 63 -60 68 -87 53z"/>
<path d="M6228 9587 c-107 -119 -231 -278 -307 -392 -39 -59 -71 -112 -71
-116 0 -4 33 6 73 22 39 17 126 45 192 63 l120 33 3 49 c4 76 31 272 48 343 8
35 13 66 11 67 -2 2 -33 -29 -69 -69z"/>
<path d="M15209 9406 l-136 -71 -6 -141 c-7 -150 -28 -320 -53 -418 -8 -32
-13 -60 -10 -63 10 -10 352 243 399 295 17 19 18 28 7 119 -9 83 -57 344 -63
349 -1 1 -63 -31 -138 -70z"/>
<path d="M8492 9379 c5 -62 41 -139 101 -219 l42 -55 7 65 c3 36 9 94 13 131
7 60 6 67 -17 94 -21 24 -34 29 -88 33 l-63 5 5 -54z"/>
<path d="M11975 9364 c-76 -47 -312 -163 -446 -219 -168 -71 -495 -181 -699
-235 -85 -23 -164 -45 -174 -49 -16 -6 -6 -17 65 -72 143 -111 216 -159 240
-159 37 0 248 56 404 107 334 108 651 252 853 387 56 38 105 72 107 76 3 5
-32 29 -77 55 -46 26 -111 67 -146 91 -35 24 -68 44 -75 43 -7 0 -30 -12 -52
-25z"/>
<path d="M14950 9282 c-47 -19 -125 -50 -175 -67 l-90 -33 -7 -238 c-4 -132
-14 -283 -21 -336 -7 -54 -11 -98 -10 -98 8 0 154 76 225 117 88 51 82 39 123
239 23 110 52 402 43 437 -2 12 -19 8 -88 -21z"/>
<path d="M12286 9138 c-87 -64 -218 -144 -323 -196 -220 -111 -589 -249 -843
-316 l-125 -33 70 -44 c204 -130 452 -254 584 -292 l84 -24 96 29 c173 53 425
194 611 345 101 82 277 265 339 354 l51 73 -117 32 c-65 18 -169 53 -231 78
-63 25 -117 46 -120 46 -4 -1 -38 -24 -76 -52z"/>
<path d="M14570 9144 c-41 -13 -124 -37 -185 -53 l-110 -29 -6 -189 c-6 -176
-28 -384 -49 -477 -5 -23 -10 -47 -10 -53 0 -24 386 128 394 156 16 52 38 284
43 464 3 114 4 207 2 206 -2 0 -38 -12 -79 -25z"/>
<path d="M6165 9153 c-63 -16 -204 -67 -273 -98 l-80 -37 -45 -97 c-63 -135
-103 -254 -142 -416 -38 -162 -46 -205 -40 -205 3 0 23 11 44 24 124 78 336
170 531 230 94 28 115 38 113 53 -1 10 -9 65 -17 123 -9 58 -19 178 -23 268
-7 178 -4 171 -68 155z"/>
<path d="M14100 9027 l-106 -20 -27 -135 c-34 -164 -101 -377 -169 -530 -38
-85 -47 -116 -39 -126 6 -7 8 -16 4 -19 -10 -11 -2 -9 88 21 46 16 135 44 197
62 90 26 115 38 122 55 27 72 70 445 70 618 0 86 -2 97 -17 96 -10 -1 -65 -11
-123 -22z"/>
<path d="M12826 8982 c-151 -218 -381 -432 -621 -579 -51 -32 -93 -58 -92 -59
1 -1 45 6 97 16 162 32 358 50 530 50 l165 0 121 123 c66 67 144 149 172 183
55 65 172 232 172 246 0 4 -26 8 -58 8 -68 0 -278 24 -381 43 l-73 14 -32 -45z"/>
<path d="M13855 8989 c-27 -5 -141 -11 -252 -15 -112 -4 -203 -10 -203 -14 0
-4 -26 -48 -58 -96 -68 -104 -174 -233 -296 -361 l-87 -91 58 -7 c213 -23 441
-72 610 -133 59 -21 85 -26 92 -18 4 6 30 58 56 116 63 138 138 367 168 513
l25 117 -32 -1 c-17 -1 -53 -5 -81 -10z"/>
<path d="M6120 8511 c-171 -58 -305 -118 -446 -202 -118 -71 -102 -34 -133
-314 -29 -259 -51 -531 -51 -625 l0 -81 138 142 c239 247 464 420 712 548 69
35 126 65 128 66 1 1 -16 41 -38 89 -46 100 -112 285 -130 369 -7 31 -18 57
-24 57 -6 0 -76 -22 -156 -49z"/>
<path d="M7856 8468 c-3 -13 -6 -57 -6 -98 0 -91 27 -157 87 -211 49 -45 141
-89 190 -92 31 -2 40 3 60 32 50 74 14 171 -67 179 -78 8 -151 62 -215 158
-20 30 -38 54 -39 54 -2 0 -6 -10 -10 -22z"/>
<path d="M10310 8351 c-270 -59 -510 -268 -674 -587 -68 -131 -203 -471 -191
-482 1 -2 61 21 132 51 616 263 1294 479 1891 601 394 81 700 111 1056 103
504 -11 905 -117 1282 -337 256 -150 484 -452 565 -747 30 -110 37 -335 15
-455 -82 -433 -411 -879 -941 -1271 -411 -304 -898 -535 -1330 -632 -298 -66
-454 -88 -1123 -155 -548 -55 -766 -84 -1018 -135 -509 -103 -864 -267 -1109
-510 -225 -224 -356 -521 -394 -895 -9 -93 -7 -121 5 -84 19 60 73 154 124
219 93 116 285 269 424 337 l46 22 31 -37 c29 -35 86 -74 95 -65 2 3 -5 35
-16 73 -15 54 -17 71 -7 77 43 28 431 158 471 158 5 0 -6 -17 -25 -37 -20 -21
-70 -83 -112 -138 l-76 -100 -52 -255 c-46 -219 -56 -258 -76 -273 -47 -38
-14 -97 92 -166 79 -52 143 -78 223 -90 47 -7 47 -7 -87 -39 -236 -58 -353
-74 -516 -75 -115 -1 -165 3 -215 17 -139 38 -266 116 -311 190 -32 52 -21 7
17 -73 86 -177 314 -342 569 -411 93 -25 320 -38 403 -22 41 7 52 7 52 -4 0
-18 -94 -29 -240 -27 -202 2 -385 59 -557 173 -118 78 -220 185 -269 286 l-39
78 1 151 c1 102 8 187 22 266 122 683 577 1088 1437 1278 288 63 531 97 1177
161 594 59 766 83 1043 146 335 76 657 210 998 414 270 161 490 331 702 544
278 278 444 541 522 824 24 87 27 115 27 267 0 147 -3 182 -22 255 -29 107
-105 267 -174 367 -75 110 -220 258 -308 316 -103 68 -353 189 -479 232 -613
210 -1345 192 -2296 -55 -375 -97 -818 -238 -1115 -355 -164 -64 -562 -230
-583 -242 -4 -3 12 -26 35 -51 87 -93 187 -267 238 -412 13 -36 27 -69 31 -74
10 -12 197 53 449 156 107 43 299 121 427 173 687 279 1244 398 1930 412 312
6 468 -4 638 -42 376 -85 596 -297 654 -629 45 -249 -47 -572 -226 -795 -243
-304 -643 -523 -1423 -779 -628 -206 -1013 -272 -1770 -302 -577 -23 -735 -27
-746 -19 -14 11 -330 -90 -541 -173 -697 -272 -1209 -696 -1467 -1215 -329
-660 -152 -1347 436 -1701 249 -149 518 -222 823 -222 308 1 548 54 1065 235
l275 97 180 14 c321 24 586 16 800 -27 201 -40 338 -88 720 -251 311 -133 515
-205 680 -239 93 -20 140 -24 305 -24 214 0 274 10 398 66 103 46 172 119 172
181 l0 27 -36 -24 c-75 -51 -171 -26 -206 51 -40 92 8 179 113 204 118 29 265
2 549 -100 216 -77 293 -93 429 -88 106 3 122 6 186 36 89 42 147 86 292 223
148 140 224 195 316 226 126 44 233 25 474 -85 315 -145 480 -192 691 -200
218 -7 349 21 535 114 135 67 229 137 348 254 159 158 279 334 379 558 212
475 311 994 255 1338 -50 311 -225 577 -458 700 -38 20 -70 34 -72 32 -2 -2
16 -32 40 -68 101 -144 197 -368 236 -550 32 -147 33 -403 2 -535 -89 -380
-329 -686 -640 -815 -148 -62 -212 -74 -393 -74 -191 0 -265 16 -410 85 -106
51 -159 90 -311 234 -67 64 -152 135 -189 160 -222 148 -525 210 -845 175
-119 -13 -290 -47 -384 -76 -41 -13 -77 -22 -78 -20 -9 9 87 137 145 194 84
82 179 145 283 187 94 38 95 38 -118 56 -300 25 -663 -10 -1038 -101 -374 -90
-682 -200 -1364 -484 -512 -214 -909 -367 -1054 -406 -26 -7 -46 -14 -44 -16
2 -2 77 1 168 7 90 6 349 11 574 13 453 3 471 5 673 72 126 41 262 105 582
274 270 142 408 204 557 249 108 34 252 61 319 61 70 0 51 -17 -28 -24 -235
-23 -446 -103 -840 -319 -349 -191 -524 -269 -711 -320 l-82 -22 55 -7 c105
-14 225 -40 305 -66 70 -22 97 -26 215 -26 220 1 366 36 782 189 423 157 578
191 817 182 260 -10 434 -74 833 -308 429 -251 603 -323 847 -350 354 -38 761
127 991 403 30 36 58 64 63 61 20 -12 -125 -170 -230 -249 -148 -111 -338
-194 -528 -230 -133 -24 -356 -15 -485 21 -194 53 -301 103 -635 295 -374 214
-540 284 -747 316 -239 37 -447 -4 -924 -182 -138 -51 -298 -107 -355 -124
-128 -38 -309 -70 -397 -70 l-65 0 42 -39 c24 -22 41 -45 39 -51 -2 -7 -28
-22 -57 -35 l-53 -22 133 -1 c222 -2 374 -37 650 -152 91 -38 199 -80 240 -94
248 -83 467 -70 679 40 89 45 100 50 100 36 0 -16 -127 -82 -215 -111 -122
-41 -247 -55 -358 -41 -118 14 -229 48 -447 134 -308 123 -360 135 -601 143
-225 7 -302 -5 -584 -92 -231 -72 -561 -158 -785 -205 -114 -24 -154 -39 -107
-40 50 0 218 -41 334 -81 177 -61 332 -144 483 -259 201 -153 357 -220 558
-238 91 -8 97 -29 7 -24 -87 5 -184 27 -284 65 -100 37 -181 85 -321 188 -110
80 -334 195 -466 238 -102 33 -260 66 -372 77 -40 3 -74 10 -77 14 -2 4 -61
-4 -131 -17 -171 -33 -617 -103 -622 -98 -9 9 11 25 32 25 38 0 536 86 726
125 386 80 761 176 1014 260 72 24 154 51 181 60 119 39 295 108 295 116 0 4
-13 17 -29 29 -94 66 -287 124 -516 155 -196 27 -763 32 -1106 10 -145 -9
-272 -18 -281 -21 -9 -3 -26 1 -36 7 -23 14 -203 -4 -470 -47 -84 -13 -155
-24 -157 -24 -2 0 15 39 38 87 34 72 41 97 42 149 0 34 3 60 6 58 3 -2 70 57
149 131 172 162 189 170 355 169 61 0 122 -4 137 -7 24 -6 27 -4 34 26 4 22
32 56 89 112 80 77 115 126 115 160 0 20 28 31 42 17 8 -8 3 -27 -16 -66 -22
-45 -45 -69 -110 -120 -45 -35 -87 -75 -93 -88 -6 -12 -14 -67 -17 -121 -3
-54 -11 -116 -18 -138 -23 -78 -120 -150 -247 -184 l-46 -12 65 -32 c54 -26
77 -31 135 -31 112 1 180 36 256 132 l37 48 -18 38 c-22 46 -59 67 -116 67
-23 0 -37 3 -31 7 7 4 36 8 66 8 49 0 57 -3 93 -39 l39 -40 94 44 c88 40 97
48 132 102 61 95 77 146 77 248 1 138 -24 182 -208 363 -80 79 -139 145 -133
147 7 2 131 25 277 50 1466 256 2370 618 2926 1170 181 180 293 336 394 549
171 359 211 720 124 1115 -126 568 -551 1087 -1104 1350 -192 91 -458 171
-690 207 -182 29 -603 27 -810 -5 -272 -40 -613 -138 -915 -261 l-146 -60 -87
27 c-74 22 -107 26 -222 27 -189 1 -304 -32 -427 -125 l-61 -47 15 37 c50 121
155 257 266 349 l70 57 -34 8 c-19 4 -119 10 -224 13 -160 3 -204 1 -275 -15z
m128 -4714 c2 -11 -7 -21 -25 -28 -137 -52 -238 -124 -282 -201 -16 -28 -44
-107 -62 -175 -18 -68 -34 -121 -36 -119 -6 6 33 188 54 251 34 105 103 177
242 249 90 47 104 50 109 23z m-636 -294 c14 -83 71 -153 108 -133 28 15 46
12 75 -12 50 -44 50 -81 -5 -303 -27 -110 -53 -222 -56 -248 -7 -51 -13 -56
-79 -71 -26 -5 -28 -5 -13 7 15 12 12 14 -26 25 -23 6 -63 29 -89 53 l-48 41
-61 -17 c-98 -27 -179 -4 -248 72 -28 31 -29 33 -5 11 41 -37 112 -68 158 -68
21 0 67 12 102 28 51 21 67 33 75 56 14 41 12 101 -4 140 -13 32 -12 40 12
104 26 69 29 71 104 117 l78 47 -46 41 c-49 43 -74 88 -74 132 0 20 4 26 17
23 12 -2 20 -17 25 -45z m391 -231 c22 -50 72 -101 122 -123 43 -20 25 -26
-22 -8 -73 27 -163 120 -149 154 10 26 32 16 49 -23z m-656 -91 c20 -31 46
-56 75 -70 l43 -21 -35 6 c-65 12 -159 87 -147 118 11 28 31 17 64 -33z m589
-358 l39 -16 -35 -8 c-38 -8 -70 4 -70 26 0 19 19 19 66 -2z"/>
<path d="M6355 7957 c-271 -141 -526 -350 -787 -642 l-89 -100 6 -115 c3 -63
11 -158 16 -210 12 -109 56 -341 68 -353 4 -4 29 25 56 65 181 273 478 609
838 947 114 107 207 198 207 202 0 4 -4 10 -9 14 -12 7 -110 147 -145 208 -15
26 -31 47 -34 47 -4 0 -61 -29 -127 -63z"/>
<path d="M8375 7891 c-49 -11 -121 -30 -160 -42 -103 -34 -340 -155 -497 -253
-75 -47 -144 -86 -152 -86 -29 0 -13 140 23 209 7 12 10 25 8 28 -10 9 -158
-67 -244 -126 -121 -82 -257 -208 -360 -331 -13 -15 -33 41 -33 89 l-1 56 -44
-50 c-24 -27 -63 -82 -85 -122 -39 -68 -88 -189 -79 -197 2 -2 42 9 89 25 87
29 125 35 134 21 10 -16 -11 -29 -74 -46 -121 -33 -217 -76 -263 -116 -76 -67
-212 -323 -262 -495 -39 -131 -45 -299 -16 -415 22 -90 79 -218 131 -298 17
-26 22 -36 10 -22 -33 37 -94 148 -124 224 -87 220 -73 435 46 713 58 135 48
145 -40 43 -114 -131 -274 -349 -361 -489 -84 -135 -176 -300 -170 -305 120
-94 498 -302 719 -395 186 -78 370 -222 370 -289 0 -15 -9 -46 -20 -69 -10
-24 -17 -43 -14 -43 10 0 51 106 58 148 9 62 -9 116 -70 209 -59 90 -78 129
-70 150 10 24 35 13 44 -19 5 -18 32 -73 60 -122 62 -107 71 -155 48 -240 -16
-56 -67 -150 -85 -158 -4 -2 -47 -52 -95 -111 -68 -85 -84 -112 -76 -122 9
-11 2 -24 -31 -60 -80 -86 -252 -149 -350 -127 l-44 10 64 1 c35 1 81 6 101
12 l38 12 -140 84 c-76 46 -177 108 -223 138 -115 74 -115 74 -375 175 l-228
89 -249 -97 -248 -98 -43 -64 c-64 -97 -84 -161 -80 -246 2 -41 9 -78 17 -88
13 -15 18 -8 48 61 18 43 47 95 64 116 l30 38 -16 44 c-14 34 -15 52 -7 82
l10 38 1 -36 c1 -21 11 -50 26 -70 14 -19 28 -42 31 -51 3 -9 19 -22 35 -28
25 -11 38 -9 87 9 31 12 77 25 101 29 42 7 44 8 61 65 18 57 62 127 81 127 26
0 19 -33 -15 -66 -40 -39 -69 -88 -64 -109 2 -8 75 -67 163 -131 l160 -116 6
45 c9 56 27 91 78 146 36 39 43 42 57 30 15 -12 12 -18 -34 -59 -88 -78 -114
-148 -72 -190 12 -12 33 -20 53 -20 64 0 135 -27 235 -89 95 -59 116 -81 92
-96 -6 -4 -53 23 -105 60 -52 36 -111 73 -130 81 -24 10 -102 17 -250 23
l-216 9 -149 -38 -149 -39 -197 -165 c-153 -129 -202 -166 -225 -166 -32 0
-59 -31 -59 -70 0 -82 66 -240 130 -313 42 -48 136 -100 198 -111 l33 -6 -21
29 c-26 37 -50 105 -50 141 0 24 -6 30 -50 46 -97 35 -152 105 -164 209 -5 47
-5 47 4 12 27 -103 77 -156 177 -186 l67 -20 33 20 c41 26 73 69 80 111 4 28
15 39 72 72 l66 38 90 -10 c50 -5 91 -9 93 -7 1 1 -2 14 -8 29 -24 63 -2 186
34 186 24 0 24 -12 0 -57 -35 -68 -32 -163 6 -163 41 0 67 -63 46 -113 -8 -20
-12 -37 -10 -40 3 -2 -28 -29 -68 -58 -244 -180 -581 -476 -610 -538 -20 -42
-22 -89 -4 -146 21 -72 121 -107 246 -85 36 6 76 13 90 15 36 5 106 93 192
241 l36 62 -39 18 c-44 19 -112 89 -106 107 8 25 34 18 47 -12 7 -17 32 -49
57 -72 36 -33 49 -40 71 -35 55 13 170 77 216 120 l48 44 -31 39 c-39 49 -61
112 -61 177 0 59 11 82 35 72 13 -5 15 -12 8 -38 -20 -81 4 -199 49 -235 9 -8
55 -7 158 3 221 20 247 19 318 -17 36 -17 96 -63 142 -106 74 -69 82 -74 98
-61 25 23 77 36 169 42 81 5 143 23 173 51 19 18 45 4 37 -20 -13 -33 -94 -57
-211 -62 -61 -2 -120 -6 -131 -8 -11 -2 -56 -45 -100 -95 -96 -109 -128 -125
-237 -118 -45 3 -96 15 -135 31 l-62 25 9 -24 c31 -81 92 -154 154 -186 51
-26 160 -34 236 -16 51 13 55 16 63 51 13 52 2 85 -41 126 l-37 35 45 -26 c52
-30 82 -79 77 -125 -2 -23 2 -34 13 -37 8 -3 54 -14 102 -25 85 -20 88 -20
140 -2 195 67 295 180 306 346 5 86 -28 341 -63 475 -31 118 -49 167 -114 299
-53 109 -65 165 -34 159 10 -2 20 -16 23 -33 4 -17 25 -75 48 -130 22 -55 50
-134 61 -175 11 -41 20 -69 20 -61 1 7 24 65 52 128 49 110 65 133 397 561
324 418 383 497 423 569 16 29 16 29 85 22 38 -4 123 -11 190 -14 l121 -8 7
89 c18 233 80 540 150 743 14 41 25 76 23 78 -11 11 -157 -75 -205 -121 -32
-30 -62 -52 -68 -48 -6 4 -14 45 -17 92 -3 47 -13 105 -23 130 l-16 45 72 115
72 115 -6 75 c-12 168 -83 338 -180 434 -33 34 -71 69 -84 79 -25 19 -21 37 8
37 27 0 118 -87 161 -153 49 -75 93 -199 113 -316 25 -145 25 -142 -60 -270
l-76 -114 16 -68 c9 -37 16 -88 16 -114 l0 -47 53 49 c144 131 356 178 732
162 114 -5 163 -12 202 -27 l52 -20 -23 62 c-57 148 -130 285 -212 396 -24 33
-44 66 -44 73 0 17 46 31 164 52 198 34 439 6 613 -71 29 -12 53 -19 53 -15 0
20 -54 162 -94 246 -112 236 -274 398 -474 473 -53 20 -92 26 -185 30 -146 6
-150 18 -29 78 100 51 209 81 344 97 l101 12 -86 82 c-138 130 -285 220 -426
259 -91 25 -317 28 -426 5z m-328 -2023 c-3 -7 -5 -2 -5 12 0 14 2 19 5 13 2
-7 2 -19 0 -25z m-1502 -198 c10 -11 16 -20 13 -20 -3 0 -13 9 -23 20 -10 11
-16 20 -13 20 3 0 13 -9 23 -20z m-1505 -1522 c0 -57 5 -81 21 -108 l21 -35
-22 20 c-31 28 -47 62 -55 118 -8 54 -2 77 20 77 12 0 15 -14 15 -72z m991
-24 c94 -18 118 -30 97 -50 -10 -10 -28 -8 -88 8 -46 13 -110 21 -165 22 -108
1 -151 -16 -288 -120 -49 -36 -90 -64 -92 -62 -5 4 154 135 198 163 87 55 191
67 338 39z"/>
<path d="M6503 7551 c-260 -246 -499 -506 -677 -735 -101 -130 -236 -333 -236
-356 0 -61 156 -429 202 -477 l31 -32 70 122 c125 220 282 438 465 650 l93
107 -6 78 c-12 139 29 362 66 362 11 0 19 -4 19 -9 0 -12 116 -137 150 -161
l28 -20 17 52 c29 89 92 199 159 279 l64 76 -47 36 c-25 20 -82 72 -126 116
-44 45 -83 81 -87 81 -3 0 -87 -76 -185 -169z"/>
<path d="M9280 7428 c-68 -120 -67 -111 -3 -157 55 -39 57 -40 91 -25 19 8 36
14 38 14 1 0 -10 25 -26 55 -16 31 -35 83 -42 115 -6 33 -14 60 -18 60 -3 0
-21 -28 -40 -62z"/>
<path d="M7004 7426 c-3 -8 -4 -24 -2 -36 l3 -22 22 24 c22 23 22 24 2 36 -16
10 -20 10 -25 -2z"/>
<path d="M12305 7364 c-33 -3 -127 -11 -210 -19 -120 -12 -153 -18 -163 -32
-34 -47 -136 -271 -171 -379 -57 -173 -101 -417 -113 -626 l-3 -47 90 50 c257
143 669 329 727 329 7 0 26 25 42 56 76 145 250 389 394 554 l83 95 -28 8
c-30 9 -547 17 -648 11z"/>
<path d="M12920 7233 c-51 -60 -129 -160 -175 -223 -86 -121 -221 -337 -214
-344 2 -2 42 5 89 15 47 11 141 22 210 25 193 10 342 -25 446 -105 l52 -39
108 0 c81 0 130 -6 189 -22 125 -34 120 -36 123 43 5 112 -22 239 -75 347 -38
79 -59 108 -128 177 -69 68 -99 90 -187 132 -96 47 -269 101 -324 101 -17 0
-47 -28 -114 -107z"/>
<path d="M11830 7314 c-8 -2 -82 -15 -165 -30 -166 -29 -435 -94 -592 -143
l-101 -32 -21 -77 c-52 -192 -64 -303 -65 -562 0 -223 2 -259 27 -403 31 -183
32 -203 11 -211 -24 -9 -24 -9 -24 27 0 17 -9 82 -19 144 -58 333 -49 633 28
949 16 65 29 120 28 121 -5 4 -312 -116 -579 -227 l-296 -122 -16 -87 c-74
-392 -57 -769 48 -1041 46 -119 45 -114 21 -118 -17 -2 -25 11 -53 85 -73 203
-95 335 -95 583 0 179 23 396 54 514 6 21 8 40 5 43 -2 3 -67 -18 -143 -45
-76 -28 -150 -53 -165 -57 -24 -6 -25 -9 -17 -38 13 -47 -2 -54 -61 -27 -45
21 -56 23 -98 13 -49 -10 -252 -52 -288 -59 -22 -4 -43 -63 -98 -276 -24 -91
-24 -100 -10 -140 17 -49 12 -72 -16 -65 -22 6 -22 5 -46 -148 -28 -180 -29
-624 -1 -652 3 -3 83 11 179 30 136 27 176 32 188 22 28 -22 91 -55 162 -85
118 -50 247 -77 428 -89 91 -7 192 -19 225 -27 120 -31 109 -31 91 5 -24 45
-88 88 -170 112 -76 23 -147 55 -158 73 -4 5 -2 16 3 22 7 9 28 2 82 -25 40
-20 94 -45 121 -55 80 -31 144 -99 150 -161 2 -12 11 -51 21 -87 l17 -66 62 4
c225 13 403 26 481 35 135 14 369 51 377 58 16 14 -60 271 -81 271 -3 0 -49
-11 -102 -23 l-97 -24 -6 51 c-3 28 -6 76 -6 107 0 62 -29 231 -66 388 -13 57
-23 105 -22 106 2 1 82 45 178 98 96 53 240 134 320 180 l145 84 3 49 c18 321
102 653 228 903 35 69 64 127 64 128 0 4 -51 2 -70 -3z"/>
<path d="M6501 7137 c-13 -74 -15 -307 -3 -307 5 0 19 19 32 42 30 54 96 125
132 144 l29 15 -87 85 c-48 46 -89 84 -90 84 -1 0 -7 -28 -13 -63z"/>
<path d="M9060 6664 c-118 -18 -171 -28 -176 -35 -2 -4 10 -29 28 -54 l33 -47
90 7 c169 12 425 53 463 74 16 9 -95 37 -201 51 -70 9 -187 11 -237 4z"/>
<path d="M13396 6475 c51 -77 56 -135 19 -204 -41 -74 -121 -159 -229 -241
l-94 -71 48 -64 c26 -34 60 -89 75 -121 15 -33 29 -61 31 -63 7 -8 146 113
214 186 89 95 154 193 202 306 33 76 78 227 78 262 0 27 -169 65 -288 65 l-92
0 36 -55z"/>
<path d="M9079 6497 l-106 -9 57 -112 c31 -61 63 -127 70 -146 10 -29 14 -31
18 -15 2 11 22 77 43 147 40 132 44 149 32 146 -5 0 -56 -5 -114 -11z"/>
<path d="M8505 6114 c-16 -3 -53 -9 -81 -15 l-51 -10 -32 -104 c-80 -259 -141
-598 -141 -778 l0 -40 238 6 c207 5 385 19 555 43 43 6 48 9 43 28 -3 12 -9
91 -12 176 -7 172 5 339 37 524 24 135 24 134 -51 157 -35 11 -445 21 -505 13z"/>
<path d="M12995 5900 c-72 -44 -223 -123 -321 -168 l-71 -32 53 -81 c29 -44
60 -102 70 -130 10 -27 23 -49 30 -49 31 0 395 194 446 238 16 13 16 18 2 51
-18 45 -95 160 -126 188 l-23 21 -60 -38z"/>
<path d="M12405 5620 c-82 -32 -202 -76 -265 -97 -63 -21 -116 -38 -118 -39
-2 -1 20 -41 47 -90 28 -48 58 -107 67 -131 9 -24 23 -43 30 -43 34 0 554 195
554 208 0 32 -139 253 -158 251 -4 0 -74 -27 -157 -59z"/>
<path d="M11890 5444 c-41 -13 -167 -49 -280 -80 -113 -30 -228 -62 -256 -69
l-50 -15 28 -83 c15 -47 31 -109 36 -138 9 -63 -6 -62 184 -19 150 35 264 66
445 122 l132 41 -41 81 c-48 96 -105 186 -115 185 -5 -1 -42 -12 -83 -25z"/>
<path d="M10135 4995 c-110 -28 -247 -66 -305 -83 l-105 -32 145 5 c520 17
510 17 510 35 0 19 -30 112 -39 121 -3 4 -96 -17 -206 -46z"/>
<path d="M4846 3069 c40 -74 112 -143 170 -163 48 -16 164 -21 198 -7 15 6 12
11 -23 34 -43 29 -81 79 -81 109 0 14 -7 16 -48 11 -56 -6 -159 17 -210 49
l-35 22 29 -55z"/>
</g>
</svg>
