<svg width="2218" height="1925" viewBox="0 0 2218 1925" fill="none" xmlns="http://www.w3.org/2000/svg">
<path d="M1041.72 11.309C1035.66 17.3745 1029.07 26.3859 1026.65 31.4116C1017.98 49.9544 1022.49 80.2815 1037.39 103.503C1045.88 117.021 1068.93 140.242 1083.14 149.774C1115.37 171.436 1156.61 183.567 1197.68 183.567C1241.17 183.567 1278.6 170.05 1336.82 133.31C1399.2 93.972 1430.05 82.5343 1459.85 88.0798C1483.94 92.5856 1501.44 105.063 1550.82 153.066C1568.5 170.396 1588.77 188.766 1595.88 194.138C1609.05 203.843 1623.6 213.027 1626.2 213.027C1626.89 213.027 1616.67 202.283 1603.33 189.112C1575.6 162.078 1565.9 149.774 1532.98 101.25C1500.75 53.5936 1489.66 43.1958 1469.04 40.423C1450.84 37.9969 1418.44 51.1675 1382.74 75.2558C1341.5 103.33 1334.57 107.662 1315.16 117.54C1232.16 159.825 1144.48 157.572 1083.31 111.648C1056.11 91.1992 1039.12 58.446 1042.59 33.3178C1043.8 23.7865 1047.96 20.8404 1061.13 19.454C1071.87 18.4142 1083.83 21.8802 1089.03 27.599C1093.01 32.1047 1095.09 31.9314 1095.09 27.599C1095.09 22.5734 1090.76 14.6017 1083.48 6.63001C1077.42 -0.128593 1077.25 -0.128593 1064.94 0.0447045L1052.64 0.218002L1041.72 11.309Z" fill="#FF0000"/>
<path d="M1551.52 94.3186C1553.42 103.33 1566.25 127.592 1575.78 140.242C1598.3 170.396 1627.76 197.95 1672.99 231.397C1707.3 257.045 1709.03 258.258 1707.3 259.818C1705.91 261.204 1644.4 254.792 1622.74 250.98C1594.14 246.127 1566.25 234.69 1532.8 214.067C1513.74 202.283 1495.89 192.232 1494.51 192.232C1491.73 192.232 1500.75 204.882 1510.62 215.107C1538.17 243.701 1577.86 263.804 1633.13 276.974C1695.34 292.051 1712.84 298.463 1727.92 311.807C1740.22 322.551 1736.93 324.284 1699.33 327.404C1667.1 329.83 1635.56 324.631 1605.41 311.46C1598.82 308.514 1581.67 299.676 1567.29 291.878C1538.35 275.934 1508.89 261.031 1502.48 258.951C1498.49 257.738 1498.49 257.911 1503.69 265.19C1510.1 274.548 1532.28 296.037 1546.84 307.128C1577.86 330.696 1624.81 354.092 1655.49 361.197C1661.55 362.583 1677.67 364.489 1691.35 365.529C1705.04 366.569 1718.91 368.129 1721.85 369.168C1729.65 371.768 1732.42 380.606 1729.65 395.336C1726.53 411.973 1718.91 420.638 1718.91 407.467C1718.91 392.564 1712.15 387.885 1682.17 381.819C1655.66 376.447 1630.01 367.955 1611.47 358.597C1592.76 349.066 1577.86 345.947 1562.95 348.199C1533.84 352.705 1472.15 393.603 1428.66 437.274C1394.87 471.241 1378.58 496.369 1366.97 531.548C1351.72 578.685 1347.39 607.279 1347.39 660.135C1347.56 718.883 1354.15 757.528 1368.01 779.883C1371.48 785.429 1375.64 794.094 1377.37 799.119C1383.43 815.929 1392.62 834.126 1400.76 845.043C1416.18 865.492 1449.11 893.913 1497.11 928.053C1511.84 938.624 1541.12 959.42 1562.09 974.323C1605.75 1005.34 1631.75 1025.62 1659.12 1049.88C1714.92 1099.44 1749.92 1153.17 1757.03 1200.3C1763.61 1243.11 1743.51 1289.72 1705.22 1320.57C1671.95 1347.61 1629.67 1357.83 1571.1 1353.5C1535.92 1350.73 1530.2 1349.51 1499.88 1337.38C1430.91 1309.83 1389.85 1284.35 1351.55 1246.05C1329.89 1224.22 1314.29 1205.33 1272.71 1150.57C1214.31 1073.45 1188.84 1043.3 1151.06 1006.56C1099.6 956.474 1055.59 935.158 993.725 930.652C874.507 921.814 768.979 990.44 703.652 1119.2C675.754 1174.14 668.476 1199.44 644.563 1325.25C629.834 1403.06 609.387 1443.96 571.092 1472.9C566.24 1476.54 550.644 1485.55 536.435 1492.66L510.443 1505.83L481.852 1510.51C441.304 1517.09 410.98 1516.92 388.973 1510.33C367.659 1503.92 338.202 1489.36 320.527 1476.37C312.383 1470.47 300.773 1462.33 294.362 1458.17C288.123 1454.01 282.232 1448.81 281.192 1446.56C280.152 1444.31 271.662 1433.56 262.131 1422.47C226.955 1381.4 211.187 1357.83 190.566 1315.72C182.075 1298.39 171.505 1278.11 167 1270.84C162.494 1263.56 155.91 1249.17 152.271 1239.12C148.805 1229.07 143.78 1215.21 141.354 1208.62C138.928 1201.86 136.849 1193.89 136.849 1190.6C136.849 1187.31 134.943 1180.72 132.517 1175.87C126.799 1164.6 112.243 1111.92 105.658 1079.51C94.395 1023.54 90.0629 972.937 90.0629 895.3C90.0629 820.262 94.9148 772.432 107.391 720.962C120.907 665.68 139.448 621.49 165.96 581.111C177.917 562.915 186.581 552.69 189.873 552.69C194.205 552.69 192.472 556.503 177.223 579.378C158.682 607.106 141.527 640.726 132.863 666.2C125.412 688.556 117.441 722.695 119.347 724.775C120.214 725.641 124.026 724.428 128.012 722.349C138.408 716.976 144.82 718.709 157.469 730.494C165.787 738.119 169.946 744.184 178.263 760.301C183.981 771.392 191.086 784.043 193.858 788.375C202.869 801.546 219.677 817.316 231.98 823.728C251.734 833.952 261.092 836.032 288.47 835.859C321.567 835.512 326.938 833.259 303.026 829.446C260.052 822.688 229.728 806.398 213.959 781.443C205.988 768.966 201.656 756.315 195.938 729.8C192.472 712.991 189.007 701.726 185.368 695.314C182.595 689.942 180.169 684.57 180.169 683.357C180.169 682.144 185.714 680.064 193.685 678.331C223.316 671.746 239.951 665.16 251.908 655.283C279.459 632.754 282.752 591.336 259.185 565.168C253.294 558.756 243.417 552.864 241.511 554.77C241.164 555.29 241.684 559.796 242.724 564.821C245.669 578.512 243.937 601.907 239.778 607.626C227.995 623.222 206.854 625.649 191.606 612.998C186.581 608.839 185.368 606.759 185.368 601.56C185.368 593.242 190.739 584.577 202.349 574.353C207.374 569.847 213.093 563.088 214.825 559.622C218.638 552.171 221.93 538.827 220.544 536.747C220.197 535.881 217.078 536.747 213.786 538.827C206.681 542.812 202.696 543.332 202.696 539.866C202.696 536.92 230.941 518.204 246.016 511.272C268.023 501.048 281.712 498.448 315.329 498.275C338.202 498.275 352.237 499.315 372.165 502.261C386.894 504.34 399.197 505.727 399.89 505.207C402.316 502.781 386.201 489.61 373.031 483.025C350.851 472.28 331.097 468.988 298 470.028C282.752 470.721 266.637 472.28 260.745 473.667C255.027 475.226 245.669 476.44 240.124 476.44C231.98 476.44 228.688 477.306 224.529 480.599C221.583 482.852 211.36 487.877 202.003 491.69C116.228 527.042 43.4503 625.302 25.429 730.32C23.8695 738.812 21.4436 749.036 19.884 752.676C15.2054 763.593 8.9673 798.946 6.02152 829.966C4.63527 845.736 2.5559 866.705 1.68949 876.757C-0.563164 899.979 -0.563164 929.093 1.68949 950.755C2.5559 960.113 4.63527 979.869 6.1948 994.599C11.5665 1049.19 24.2161 1108.8 41.1976 1160.96C46.9159 1178.64 53.3273 1198.4 55.2334 1205.16C57.6593 1213.13 62.3379 1222.66 69.2692 1232.71C78.9729 1247.27 79.6661 1249 79.6661 1258.18C79.6661 1271.01 86.7706 1292.67 100.287 1321.09C115.535 1353.32 115.882 1360.08 103.406 1373.77C96.4743 1381.05 96.1278 1382.09 95.6079 1394.05C94.7415 1410.69 96.8209 1415.02 123.16 1453.49C134.943 1470.3 145.513 1487.28 146.899 1490.92C149.672 1499.24 153.83 1505.13 166.653 1519.52C172.198 1525.41 176.704 1531.13 176.704 1531.99C176.704 1532.86 179.303 1534.77 182.249 1536.33C185.368 1537.89 195.418 1546.38 204.429 1555.04C224.009 1573.93 235.619 1582.94 252.081 1591.78C258.839 1595.25 267.676 1601.49 272.008 1605.65C285.871 1618.64 316.715 1635.63 351.544 1649.14C373.031 1657.64 400.756 1665.26 409.594 1665.26C412.539 1665.26 416.525 1666.3 418.431 1667.69C420.684 1669.25 432.293 1670.81 453.087 1672.19C470.242 1673.23 486.011 1674.96 488.263 1675.83C491.729 1677.22 492.075 1678.6 492.075 1688.48V1699.75L481.332 1707.02C446.329 1730.59 420.857 1753.82 412.366 1769.76C407.687 1778.6 405.435 1779.64 401.796 1774.44C399.717 1771.66 396.597 1770.8 383.601 1769.93C364.367 1768.55 359.342 1769.59 357.956 1775.13C354.49 1789.17 366.273 1792.11 410.807 1788.13C433.16 1786.05 442.69 1786.74 441.304 1790.55C440.264 1794.02 426.229 1796.97 403.875 1798.53C385.681 1799.57 382.042 1800.26 379.962 1803.21C377.883 1805.98 378.056 1813.6 380.309 1815.68C380.656 1816.03 385.854 1815.16 391.919 1813.6C406.301 1809.96 424.496 1809.79 424.496 1813.26C424.496 1814.64 420.857 1816.9 415.832 1818.63C410.98 1820.19 403.355 1824 398.85 1827.12C393.305 1830.93 387.76 1833.19 381.695 1833.88C376.843 1834.4 369.739 1836.48 366.1 1838.38C358.995 1842.02 345.306 1855.19 346.866 1856.75C347.386 1857.45 352.237 1855.02 357.436 1851.73C362.808 1848.26 369.392 1845.49 371.992 1845.49C377.363 1845.49 393.998 1852.59 395.904 1855.89C396.771 1857.1 393.998 1860.74 388.8 1865.42C384.121 1869.58 380.829 1873.39 381.349 1873.91C382.042 1874.6 387.24 1873.56 393.132 1871.48C400.063 1869.23 408.034 1868.02 417.218 1868.02C441.304 1868.02 449.275 1864.03 488.09 1833.19C515.468 1811.35 520.32 1810.31 507.671 1828.85C503.859 1834.4 500.739 1840.46 500.739 1842.37C500.739 1845.84 509.23 1859.18 511.483 1859.35C513.736 1859.35 583.741 1789.86 587.207 1784.14C589.113 1781.2 592.579 1772.36 595.178 1764.56C597.777 1756.24 602.109 1747.4 605.228 1743.42C608.347 1739.78 612.159 1734.23 613.719 1731.29C615.452 1728.34 619.091 1724.53 622.036 1722.8C625.329 1720.89 627.928 1717.77 628.794 1714.13C630.007 1710.32 636.245 1702.87 647.682 1691.6C675.927 1664.22 689.096 1639.79 691.002 1611.71L691.869 1597.15L703.652 1583.98C710.063 1576.71 723.233 1563.01 732.936 1553.48C752.517 1534.25 758.929 1525.93 763.78 1513.45C765.687 1508.77 771.578 1497.85 776.95 1489.36C782.495 1480.7 793.931 1459.73 802.595 1442.57C811.26 1425.42 821.31 1408.09 824.775 1404.1C829.281 1398.9 831.533 1394.4 832.227 1389.2C833.786 1378.63 848.862 1345.7 868.789 1310C883.345 1283.66 885.424 1278.81 884.731 1273.61C883.864 1268.58 884.557 1266.68 889.236 1262C892.702 1258.36 896.514 1256.28 899.286 1256.28C901.886 1256.28 907.777 1253.33 913.322 1249.17C928.744 1237.56 937.928 1233.75 955.083 1231.67C976.223 1229.07 991.299 1231.5 1005.68 1240.16C1018.33 1247.79 1024.92 1253.68 1045.02 1275.69C1057.32 1289.2 1060.44 1293.71 1060.44 1297.87C1060.44 1307.23 1067.2 1317.97 1084.52 1336.34C1104.1 1356.96 1102.89 1355.06 1134.95 1411.55C1164.58 1463.54 1180.35 1488.67 1185.03 1491.62C1187.11 1492.66 1192.82 1502.01 1198.02 1512.41C1213.79 1543.95 1236.66 1576.01 1262.14 1602.7C1283.8 1625.4 1317.59 1651.74 1337.69 1661.79C1342.02 1663.87 1349.47 1668.21 1354.15 1671.33C1360.39 1675.66 1378.24 1682.24 1420 1695.59C1484.11 1716.21 1527.95 1727.47 1563.82 1732.85C1577.16 1734.75 1595.18 1738.22 1603.67 1740.47C1625.51 1746.36 1634.17 1747.06 1653.06 1744.8C1680.96 1741.68 1680.96 1741.68 1684.77 1747.92C1686.85 1751.56 1689.1 1762.13 1691.35 1777.38C1696.9 1817.59 1698.29 1821.4 1713.53 1837.34C1735.89 1860.74 1759.8 1878.76 1822.18 1919.31C1840.38 1931.1 1841.94 1931.79 1843.67 1928.67C1844.54 1926.94 1845.4 1922.61 1845.4 1919.31C1845.4 1914.29 1846.27 1912.73 1850.6 1910.48C1853.55 1908.92 1855.8 1907.01 1855.8 1905.97C1855.8 1904.93 1849.39 1897.31 1841.42 1889.16C1826.34 1873.39 1819.93 1865.07 1821.66 1863.34C1823.74 1861.43 1831.02 1864.55 1852.33 1876.86C1914.89 1913.08 1923.9 1916.71 1954.05 1917.93C1979.69 1918.97 1980.73 1917.23 1965.14 1898.35C1961.15 1893.67 1958.03 1888.47 1958.03 1886.91C1958.03 1883.27 1973.46 1874.95 1979.87 1874.95C1982.64 1874.95 1986.45 1876.16 1988.19 1877.55C1990.09 1878.94 1993.38 1880.15 1995.64 1880.15C1999.97 1880.15 2010.02 1875.64 2010.02 1873.91C2010.02 1873.22 2003.43 1865.07 1995.29 1855.71C1978.66 1836.65 1983.33 1838.56 1946.77 1835.09C1936.37 1834.05 1927.36 1832.84 1927.02 1832.32C1923.03 1828.33 1963.23 1822.27 1987.15 1823.31C2002.74 1824 2003.09 1823.83 2003.09 1820.19C2003.09 1815.16 1999.45 1798.18 1997.89 1796.45C1997.37 1795.75 1987.84 1797.49 1976.92 1800.43C1953.36 1806.84 1928.92 1808.92 1917.31 1805.63C1908.13 1803.03 1895.83 1792.63 1898.43 1790.03C1899.64 1788.82 1902.24 1788.99 1906.22 1790.38C1912.81 1792.81 1950.58 1793.5 1958.55 1791.25C1961.15 1790.55 1963.23 1788.99 1963.23 1787.78C1963.23 1783.45 1948.16 1762.83 1936.37 1750.87C1922.86 1737.35 1910.9 1728.69 1888.38 1716.56C1880.06 1712.05 1872.78 1707.02 1872.26 1705.29C1871.22 1701.83 1875.21 1687.62 1878.85 1681.9C1880.23 1679.82 1897.73 1668.73 1917.66 1657.46C1965.31 1630.43 1974.84 1623.84 1999.97 1600.62C2040.34 1563.53 2052.13 1550.71 2067.2 1528.18C2098.91 1480.35 2119.88 1424.55 2128.72 1364.59C2130.28 1353.15 2133.22 1337.73 2134.95 1330.45C2138.94 1314.51 2139.11 1303.24 2135.82 1291.63C2134.44 1286.95 2132.01 1273.43 2130.45 1261.48C2123.17 1205.16 2104.63 1139.82 2083.49 1095.63C2079.33 1086.97 2070.32 1071.37 2063.39 1061.15C2052.13 1044.16 2050.91 1041.39 2050.22 1032.38C2049.35 1021.63 2046.93 1018.34 2034.63 1011.76C2031.85 1010.02 2025.27 1002.74 2020.24 995.292C2007.07 975.536 1984.37 948.155 1961.5 924.587C1939.67 902.058 1923.03 887.674 1901.55 872.771C1888.38 863.586 1884.22 858.907 1875.21 843.657C1870.18 835.339 1866.2 833.779 1848 832.912C1836.91 832.393 1827.9 830.66 1816.81 826.847C1759.8 807.784 1718.73 792.361 1700.71 783.349C1689.28 777.804 1674.72 770.699 1668.31 767.753C1657.05 762.554 1655.66 761.167 1640.58 740.545C1622.04 715.763 1611.82 696.701 1605.23 674.692C1601.25 661.868 1600.56 656.149 1600.56 640.206C1600.73 614.558 1602.98 603.12 1612.17 584.75C1616.32 576.086 1620.31 567.247 1621 564.821C1622.39 559.969 1630.19 550.957 1633.13 550.957C1634.17 550.957 1635.9 557.369 1637.12 565.168C1638.5 572.966 1641.28 583.711 1643.36 589.256C1654.79 616.984 1682.17 643.152 1710.42 653.03C1715.44 654.936 1720.12 656.149 1720.47 655.629C1720.81 655.283 1717.35 650.603 1712.67 645.231C1679.57 607.279 1666.4 581.285 1666.4 554.077C1666.4 514.045 1710.59 493.769 1752.87 514.565C1759.97 518.031 1770.02 525.829 1783.71 538.827C1805.2 559.102 1810.75 562.742 1827.21 567.421C1842.28 571.926 1867.41 570.193 1898.95 562.395C1950.76 549.744 1989.75 548.185 2031.68 557.023C2054.9 561.875 2073.27 562.568 2088.86 558.929C2125.42 550.438 2127.5 550.264 2130.28 552.517C2131.66 553.73 2133.92 559.276 2134.95 564.995C2137.38 577.299 2139.29 577.819 2151.24 569.154C2163.89 560.316 2172.9 545.065 2172.9 532.588C2172.9 522.19 2165.45 509.886 2155.92 504.514C2146.39 499.315 2137.38 498.448 2119.71 501.394C2095.27 505.38 2080.2 501.741 2062.87 487.704C2045.37 473.667 2036.18 472.454 1989.23 479.039C1949.02 484.585 1937.93 484.238 1922.34 476.44C1906.74 468.814 1891.15 450.445 1900.16 450.445C1901.72 450.445 1910.38 452.005 1919.57 453.738C1960.98 462.056 1974.32 460.669 2008.46 444.379C2024.75 436.581 2037.22 431.902 2048.31 429.476C2070.67 424.624 2079.68 425.663 2098.57 435.541C2117.8 445.593 2126.12 446.632 2144.66 441.953C2162.51 437.448 2180.01 437.274 2189.37 441.607C2193.18 443.34 2200.46 448.019 2205.65 452.005C2210.85 455.817 2215.7 459.11 2216.57 459.11C2219.17 459.11 2217.96 442.82 2214.32 425.317C2208.08 395.856 2198.72 381.299 2180.7 372.461C2167.71 366.396 2140.33 365.702 2105.32 370.728C2090.08 372.981 2069.45 374.714 2057.67 374.887C2026.31 375.061 2023.54 373.328 1988.01 331.736C1976.58 318.392 1963.06 304.182 1957.86 300.196C1946.42 291.358 1923.21 278.88 1906.92 272.815C1891.84 267.096 1854.07 257.565 1852.51 258.951C1850.08 261.551 1869.49 275.934 1889.24 285.986C1900.85 291.878 1915.06 300.023 1920.95 304.009C1971.38 339.708 1940.19 406.081 1875.03 401.402C1859.96 400.362 1789.61 379.22 1772.8 370.728C1760.67 364.663 1750.96 354.265 1748.36 344.733C1745.59 334.509 1749.06 320.472 1754.26 320.472C1757.38 320.472 1762.23 332.776 1762.23 340.574C1762.23 353.745 1767.77 357.211 1802.95 366.222C1821.32 370.901 1831.37 374.541 1844.54 381.473L1861.86 390.657H1879.19C1888.72 390.484 1898.08 389.617 1899.81 388.578C1902.76 387.018 1901.89 386.325 1893.23 383.032C1878.5 377.66 1871.05 373.328 1865.33 367.435C1858.92 360.677 1853.37 359.117 1822.53 355.998C1793.24 352.878 1783.71 350.972 1777.82 346.466C1771.06 341.441 1775.05 340.401 1788.74 343.52C1803.47 346.986 1843.67 347.68 1843.67 344.56C1843.67 343.52 1840.72 340.054 1837.26 336.762C1831.37 331.216 1822.18 327.23 1809.71 324.804C1789.09 320.818 1775.92 299.676 1767.43 257.738C1765.52 248.033 1762.92 238.849 1761.53 237.636C1760.32 236.423 1746.11 230.357 1730 224.118C1693.78 210.255 1674.89 200.723 1650.46 184.433C1625.33 167.623 1603.67 148.561 1580.8 122.566C1570.58 110.955 1559.49 98.651 1556.37 95.3584L1550.48 89.1197L1551.52 94.3186Z" fill="#FF0000"/>
<path d="M1750.1 193.618C1765.87 205.749 1770.02 213.201 1778.69 244.914C1790.3 287.025 1797.4 302.969 1807.63 310.247C1812.48 313.713 1816.12 314.406 1837.08 315.446C1885.43 318.046 1910.04 329.137 1924.07 354.785C1927.88 361.717 1931.52 367.262 1932.22 367.262C1934.12 367.262 1935.51 360.157 1935.51 349.239C1935.51 327.577 1924.94 316.313 1887.34 297.423C1852.16 279.92 1835.87 265.537 1824.44 241.968C1822.18 237.462 1819.76 233.823 1818.89 233.823C1818.02 233.823 1817.85 241.448 1818.54 251.153C1819.76 266.403 1819.58 268.483 1817.16 268.483C1813.35 268.483 1806.59 256.352 1798.44 235.383C1790.47 214.067 1785.45 206.269 1775.74 199.51C1767.6 193.965 1753.91 188.766 1747.84 188.766C1744.38 188.939 1744.73 189.459 1750.1 193.618Z" fill="#FF0000"/>
<path d="M1458.12 327.231C1449.28 329.483 1438.88 335.549 1433.69 341.614C1430.91 344.734 1423.64 357.038 1417.4 368.995C1397.47 407.294 1380.49 420.291 1347.74 422.198C1315.85 424.277 1293.5 414.746 1277.73 392.39C1275.65 389.444 1273.23 387.885 1272.53 388.578C1271.67 389.444 1270.97 395.336 1271.15 401.575C1271.32 421.504 1279.29 432.249 1306.5 449.232C1316.2 455.297 1321.4 459.63 1321.75 461.883C1322.09 464.829 1317.41 468.815 1298.53 481.812C1246.54 517.338 1236.15 533.801 1228.52 592.549C1222.11 641.765 1218.3 654.763 1206.69 666.027C1194.9 677.465 1175.67 679.718 1135.82 674.692L1127.15 673.652L1134.95 681.624C1139.28 686.13 1147.08 691.848 1152.28 694.448C1160.94 698.607 1163.71 699.127 1180.87 699.127C1196.81 699.127 1201.66 698.434 1209.81 695.141C1225.75 688.729 1235.45 678.505 1246.54 656.842C1251.91 646.445 1257.29 637.606 1258.33 637.086C1259.54 636.567 1265.43 641.072 1271.32 646.791C1277.21 652.683 1282.58 656.842 1283.1 656.322C1283.8 655.803 1282.58 646.964 1280.68 636.913C1276.17 613.865 1276.17 601.041 1280.33 587.523C1286.22 568.287 1301.13 552.691 1324.69 540.906C1330.41 537.96 1337.51 533.108 1340.63 529.815C1343.58 526.696 1352.59 511.619 1360.39 496.369C1381.01 456.51 1390.71 442.3 1414.8 418.212C1438.71 394.123 1457.25 379.913 1490.18 360.504C1523.62 340.748 1521.71 342.481 1514.43 337.975C1499.19 328.617 1471.98 323.418 1458.12 327.231Z" fill="#FF0000"/>
<path d="M437.492 477.653C438.532 478.519 445.809 481.985 453.954 485.104C485.491 497.235 507.498 511.272 526.905 531.375C557.229 562.568 571.092 594.628 587.207 670.533C594.831 706.752 595.524 708.485 602.629 718.363C607.654 725.295 622.383 736.386 626.369 736.386C632.087 736.386 630.007 694.794 622.903 666.893C608.867 611.092 576.81 554.77 541.807 524.616C512.349 499.141 476.134 481.638 444.423 477.306C438.878 476.44 436.452 476.613 437.492 477.653Z" fill="#FF0000"/>
<path d="M449.968 515.258C478.386 541.773 488.436 562.742 510.27 640.899C524.652 692.368 535.049 714.724 554.11 734.999C574.211 756.315 585.994 761.514 674.887 788.375C706.251 797.906 732.59 809.344 750.438 821.301C774.351 837.418 797.917 866.705 812.992 898.592L820.097 914.016L821.656 907.95C824.082 898.939 823.909 856.308 821.656 846.949C813.685 815.236 798.263 795.653 770.019 781.616C748.705 771.045 726.352 765.673 668.649 757.355C621.516 750.423 608.174 745.397 591.539 728.067C581.142 717.15 576.29 706.579 558.615 656.842C541.287 607.279 533.663 589.256 522.053 569.847C505.071 540.906 482.198 519.417 458.286 509.539C435.066 499.835 434.026 500.355 449.968 515.258Z" fill="#FF0000"/>
<path d="M340.454 513.178C355.876 526.002 366.446 536.747 371.818 545.065C388.107 570.367 388.626 593.589 374.591 648.004C359.515 705.885 357.089 729.8 363.847 756.142C368.179 773.125 374.417 784.736 386.027 797.386C401.796 814.37 426.575 828.58 483.411 853.361C541.461 878.49 565.72 893.566 584.434 915.922C597.95 931.865 606.961 950.928 613.026 976.403C617.704 995.639 618.051 996.678 619.264 990.786C620.997 982.815 617.878 958.033 613.546 945.729C604.362 919.041 586.86 894.26 561.561 871.904C548.045 860.12 510.27 834.299 454.473 798.773C429.521 782.829 409.767 764.113 402.836 749.556C399.197 742.104 397.637 736.212 397.117 726.161C396.251 711.084 398.677 699.473 411.326 659.615C431.254 596.188 428.481 566.901 400.063 538.307C387.24 525.483 368.179 515.085 349.985 511.099C344.786 510.059 338.895 508.673 336.989 508.326C334.736 507.806 335.776 509.366 340.454 513.178Z" fill="#FF0000"/>
<path d="M915.575 620.796C903.619 642.112 901.886 647.831 902.232 665.334C902.406 683.53 906.218 699.82 913.842 716.11C924.239 738.812 937.062 752.849 972.931 781.443C1000.83 803.452 1015.04 819.742 1024.4 839.844C1030.63 853.188 1032.71 868.438 1029.25 876.757C1025.96 884.555 1016.08 892.7 1010.53 892.007C1006.37 891.487 1005.33 890.101 1002.22 879.356C1000.14 872.597 995.978 857.174 993.032 844.697C981.595 796.173 964.614 777.63 925.972 770.872C912.629 768.619 882.305 769.659 864.63 773.125L853.367 775.204L862.898 776.764C896.168 781.963 902.926 785.775 911.59 803.105C916.441 812.983 917.481 817.142 918.001 830.14C918.694 844.177 918.348 846.43 914.189 855.094C908.99 865.492 900.673 873.117 885.078 881.956C871.908 889.234 858.392 901.538 851.634 912.283C846.263 920.774 838.638 937.931 838.638 941.223C838.638 943.476 838.811 943.303 872.775 930.825C923.546 911.936 949.711 906.044 982.462 906.044C1004.3 905.871 1024.05 909.337 1039.82 915.749C1045.02 917.828 1053.16 920.081 1057.67 920.774C1063.9 921.814 1067.89 923.72 1073.26 928.573C1077.07 932.212 1089.9 940.01 1101.68 946.076C1125.25 958.033 1130.62 961.846 1158.69 987.84C1178.27 1006.21 1198.37 1027.87 1233.2 1068.42C1262.83 1102.91 1273.4 1110.71 1291.08 1110.71C1301.47 1110.71 1303.03 1111.23 1309.44 1116.77C1313.43 1120.24 1318.45 1125.79 1320.53 1129.42C1325.73 1137.92 1325.56 1137.74 1327.29 1134.97C1330.06 1130.81 1329.2 1119.03 1325.73 1111.23C1321.4 1101.87 1310.48 1095.46 1294.89 1093.03C1276.17 1090.09 1270.28 1088.35 1266.64 1084.37C1261.79 1079.17 1262.31 1072.58 1268.72 1045.89C1274.09 1024.58 1274.27 1021.29 1274.44 991.133C1274.44 961.499 1274.09 957.86 1269.59 941.916C1260.4 908.99 1247.58 884.728 1225.23 857.694C1208.42 837.591 1205.99 831.873 1205.99 813.33C1205.99 796.866 1204.78 796.173 1197.33 808.477C1188.84 822.168 1189.88 841.231 1200.62 868.092C1204.61 877.796 1207.73 886.461 1207.73 887.328C1207.73 889.581 1201.14 889.234 1186.07 886.115C1178.79 884.555 1172.55 883.689 1172.03 884.035C1171.68 884.555 1178.1 890.274 1186.24 896.859C1206.17 912.802 1215.01 922.854 1222.98 938.97C1234.93 962.539 1236.15 986.627 1226.44 998.931C1223.32 1002.92 1221.76 1003.44 1216.91 1002.74C1207.21 1001.18 1200.28 994.252 1184.51 970.857C1163.71 939.664 1155.4 929.612 1144.31 922.334C1130.27 912.976 1129.4 910.55 1130.79 883.169C1131.83 862.72 1131.66 859.947 1128.88 857.694C1126.29 855.614 1125.59 855.788 1122.65 859.427C1120.91 861.853 1118.14 867.225 1116.41 871.558C1112.25 882.475 1109.13 886.981 1103.59 889.927C1095.61 893.913 1086.6 892.873 1077.77 886.981C1070.14 881.782 1069.62 881.609 1053.85 882.475C1045.02 882.822 1037.39 882.649 1037.05 881.782C1036.53 881.089 1037.74 874.677 1039.64 867.745C1041.72 860.813 1043.8 847.643 1044.32 838.458C1045.19 824.421 1044.67 819.742 1041.55 809.69C1034.27 785.429 1022.66 772.778 978.996 741.411C950.924 721.309 937.235 707.098 929.264 690.289C923.199 677.638 922.68 675.212 922.16 658.228C921.64 644.538 922.16 637.086 924.412 628.768C932.21 600.347 928.744 597.054 915.575 620.796Z" fill="#FF0000"/>
<path d="M1324.87 724.082C1324.35 724.775 1321.92 731.187 1319.32 738.292C1313.6 754.409 1307.54 765.153 1302.51 767.753C1300.43 768.966 1294.89 770.699 1290.04 771.739C1282.58 773.471 1281.37 774.338 1280.85 778.324C1280.16 783.696 1289 794.614 1295.93 797.387C1298.35 798.253 1307.71 799.813 1316.72 800.506C1326.94 801.372 1333.53 802.759 1334.4 804.318C1336.3 807.265 1335.26 810.73 1324.35 840.884C1311.87 875.717 1308.92 892.7 1311.52 916.962C1313.95 939.664 1318.28 954.567 1328.33 973.63C1332.49 981.602 1336.48 990.787 1336.99 994.079C1338.55 1002.57 1331.1 1016.78 1320.19 1025.97C1315.51 1029.95 1312.04 1033.59 1312.39 1034.11C1312.91 1034.63 1317.07 1033.59 1321.57 1031.86C1333.18 1027.35 1344.97 1015.74 1350.86 1002.74C1355.36 993.039 1355.71 989.747 1356.4 968.085C1356.92 954.221 1357.79 944.343 1358.83 944.343C1361.43 944.343 1369.92 950.582 1387.42 965.485C1411.33 985.934 1417.74 995.466 1424.33 1019.55C1426.23 1026.66 1427.79 1033.07 1427.79 1033.59C1427.79 1034.11 1428.66 1034.46 1429.7 1034.46C1432.99 1034.46 1430.39 1000.66 1426.23 988.88C1424.33 983.335 1417.57 970.511 1411.33 960.113C1399.2 940.357 1395.74 931.346 1393.83 915.056C1392.96 907.084 1393.48 902.578 1395.91 895.993C1398.86 887.675 1398.86 886.981 1395.91 880.916C1394.35 877.45 1388.29 868.092 1382.74 860.12C1359.17 827.02 1352.07 811.077 1341.15 767.233C1330.76 725.295 1328.16 718.709 1324.87 724.082Z" fill="#FF0000"/>
<path d="M168.039 855.095C168.039 855.441 169.599 861.853 171.678 869.132C176.01 885.249 175.837 904.658 170.985 911.936C166.48 918.868 155.737 918.348 136.849 910.203C128.705 906.737 119.174 903.618 115.709 903.271C109.99 902.405 109.124 902.925 106.351 908.297C104.792 911.416 103.059 919.388 102.539 926.147C101.846 940.011 108.431 1029.26 110.337 1031.17C111.203 1031.86 116.055 1033.59 121.427 1035.15C131.997 1038.1 141.008 1046.24 143.087 1054.39C143.607 1056.81 144.82 1058.72 145.513 1058.72C146.899 1058.72 148.979 1048.32 148.979 1040.35C148.979 1037.58 150.018 1033.59 151.404 1031.86C153.657 1028.74 154.004 1028.91 157.469 1034.46C159.375 1037.75 163.188 1046.42 165.787 1053.52C168.213 1060.63 171.852 1070.68 173.758 1075.7C177.743 1086.79 185.714 1096.5 193.512 1099.62C211.533 1107.24 247.402 1097.71 276.167 1077.78C293.668 1065.65 305.278 1052.48 313.596 1035.32C319.834 1022.67 324.166 1006.73 321.567 1006.73C321.047 1006.73 316.368 1015.22 311.17 1025.45C300.08 1047.46 295.401 1053.69 284.484 1059.93C277.726 1063.92 273.914 1064.78 260.572 1065.3C233.886 1066.52 218.291 1058.55 209.107 1039.14C204.082 1028.57 195.591 1019.73 188.14 1017.13C185.194 1016.26 177.397 1014.7 170.812 1013.84C164.227 1012.8 158.162 1011.41 157.123 1010.37C155.91 1009.16 159.895 1003.78 169.426 993.906C206.854 954.221 216.558 917.655 198.017 885.942C190.913 873.811 168.039 850.242 168.039 855.095Z" fill="#FF0000"/>
<path d="M1481.86 975.363C1472.15 984.894 1464.18 993.559 1464.18 994.945C1464.18 996.332 1471.98 999.105 1486.36 1002.92C1511.32 1009.33 1529.34 1017.3 1532.11 1023.02C1534.02 1027.53 1530.55 1035.67 1515.99 1059.59C1504.21 1078.82 1500.57 1090.78 1499.36 1111.75C1498.49 1126.65 1499.01 1131.16 1502.13 1141.56C1505.94 1154.03 1518.42 1173.1 1525.18 1176.73C1529.34 1178.99 1529.51 1179.85 1521.37 1156.63C1514.44 1137.57 1514.78 1126.82 1522.75 1110.36C1533.15 1088.53 1537.48 1087.66 1532.63 1108.28C1527.26 1130.98 1532.11 1150.91 1547.19 1168.07C1557.06 1179.51 1560.01 1186.09 1558.97 1195.45C1558.62 1199.78 1557.58 1204.98 1556.89 1206.72C1554.29 1212.95 1559.32 1207.93 1563.3 1200.3C1569.54 1188.52 1568.5 1171.19 1560.7 1150.57C1551.86 1127.17 1550.3 1119.37 1551.17 1104.12C1552.21 1088.87 1556.72 1076.4 1561.74 1074.49C1566.77 1072.58 1582.88 1075.53 1595.01 1080.55C1600.73 1082.98 1610.09 1085.41 1615.8 1085.93C1626.37 1086.79 1645.26 1084.02 1647 1081.25C1648.73 1078.3 1643.18 1068.25 1637.12 1063.05C1633.83 1060.11 1626.03 1054.21 1619.96 1049.71C1613.9 1045.2 1596.74 1030.99 1582.01 1017.99C1550.3 990.093 1528.3 973.11 1512.53 964.445C1506.29 960.979 1500.75 958.206 1500.4 958.206C1500.05 958.206 1491.74 966.005 1481.86 975.363Z" fill="#FF0000"/>
<path d="M1354.15 1042.95C1353.63 1043.99 1352.59 1053.35 1352.07 1063.57C1350.16 1097.88 1357.79 1110.88 1391.06 1130.12C1400.76 1135.84 1409.25 1141.21 1409.77 1142.08C1410.81 1143.98 1401.8 1147.97 1392.79 1149.7C1386.55 1150.91 1383.61 1154.03 1388.63 1154.03C1389.85 1154.03 1396.43 1156.81 1403.36 1160.27C1418.96 1168.07 1424.33 1175.17 1424.33 1188.17C1424.33 1197.88 1421.9 1201.86 1414.62 1203.6C1406.83 1205.5 1397.82 1202.9 1376.68 1192.16C1355.71 1181.59 1334.4 1174.83 1321.75 1174.83C1317.41 1174.83 1315.16 1175.52 1315.16 1177.25C1315.16 1181.93 1337.17 1210.35 1353.28 1226.64C1405.96 1279.85 1478.74 1321.09 1543.37 1334.09C1552.9 1336.17 1564.34 1337.73 1568.33 1337.73H1575.78L1566.77 1329.06C1553.08 1316.07 1554.64 1309.31 1573.52 1297.7C1581.67 1292.5 1581.84 1292.32 1579.24 1288.34C1577.86 1286.09 1573.7 1282.97 1570.23 1281.23C1564.86 1278.81 1562.61 1278.63 1553.77 1280.19C1548.22 1281.23 1542.51 1282.97 1541.29 1284.01C1540.08 1285.05 1538 1290.94 1536.79 1297.35C1533.5 1313.47 1532.28 1314.33 1518.94 1309.31C1494.16 1299.95 1482.55 1291.11 1476.31 1276.73C1472.85 1268.76 1472.5 1265.81 1473.54 1252.12C1476.66 1204.12 1476.83 1192.68 1473.89 1179.51C1467.82 1152.82 1453.44 1132.89 1431.26 1121.28C1425.02 1117.99 1414.1 1111.92 1407 1107.59C1377.72 1090.09 1370.44 1081.94 1362.81 1058.03C1357.96 1043.12 1356.06 1040 1354.15 1042.95Z" fill="#FF0000"/>
<path d="M430.561 1132.2C426.748 1133.41 420.51 1136.01 416.525 1138.09C408.554 1142.25 391.919 1156.63 393.478 1158.19C393.998 1158.71 402.143 1157.67 411.673 1155.59C464.35 1144.33 498.14 1155.59 527.945 1194.41C537.475 1206.71 536.955 1210.18 526.385 1208.27C522.226 1207.41 510.443 1206.89 499.873 1206.89C482.545 1206.89 479.946 1207.23 470.935 1211.74C464.697 1214.86 457.766 1220.23 452.221 1226.47C443.557 1236.18 432.12 1256.1 433.333 1259.4C433.68 1260.44 439.745 1257.66 446.849 1253.68C466.603 1241.89 480.812 1240.16 495.541 1247.61C507.151 1253.68 512.869 1262 519.8 1283.14C527.945 1308.09 535.223 1316.59 557.922 1326.98C574.384 1334.61 583.741 1343.27 587.553 1354.36C589.286 1359.04 589.979 1369.79 589.806 1390.06V1419L593.965 1412.77C600.896 1402.54 609.387 1382.79 612.333 1369.44C613.892 1362.68 618.224 1338.07 622.036 1314.85C625.849 1291.63 629.661 1269.62 630.7 1265.81C634.166 1251.43 632.953 1240.51 626.195 1226.82C620.304 1214.86 619.957 1213.47 620.823 1201.86C621.343 1195.1 622.383 1187.83 622.903 1185.57C623.943 1182.28 623.596 1181.76 619.437 1181.76C616.145 1181.76 612.506 1184.01 607.654 1188.69L600.723 1195.8L601.763 1215.38C602.975 1237.56 602.629 1238.26 592.059 1234.62C572.825 1228.03 561.041 1217.29 535.223 1183.32C510.443 1150.39 498.66 1140 478.56 1133.06C467.296 1129.25 441.477 1128.73 430.561 1132.2Z" fill="#FF0000"/>
<path d="M1663.46 1137.57C1663.46 1145.89 1672.47 1155.59 1685.98 1161.48C1695.34 1165.82 1702.79 1172.23 1706.6 1179.33C1710.07 1186.44 1710.76 1201.17 1707.99 1208.28C1702.45 1221.27 1692.4 1220.58 1660.86 1205.16C1637.12 1193.54 1628.97 1191.47 1610.95 1192.51C1593.97 1193.37 1582.71 1198.4 1572.66 1209.49C1563.13 1220.06 1559.49 1229.07 1559.49 1242.59C1559.49 1256.63 1563.65 1263.9 1574.91 1269.62C1579.24 1271.88 1582.88 1273.26 1583.4 1272.92C1583.75 1272.57 1582.71 1269.8 1581.32 1266.85C1575.95 1256.45 1579.24 1237.04 1586.69 1234.79C1600.73 1230.98 1616.84 1232.88 1631.05 1239.99C1647.52 1248.48 1663.8 1267.2 1666.06 1280.37C1667.62 1290.07 1664.32 1300.64 1655.31 1313.99C1650.98 1320.4 1647.69 1326.12 1648.21 1326.46C1649.25 1327.68 1666.23 1319.36 1675.24 1313.12C1695.51 1299.26 1710.76 1280.54 1722.2 1255.93C1735.72 1226.82 1736.24 1207.24 1724.28 1171.36C1720.29 1159.41 1716.48 1148.66 1715.61 1147.45C1714.58 1145.71 1709.2 1145.02 1696.03 1144.85C1679.4 1144.5 1677.32 1144.16 1670.73 1139.65C1665.02 1136.01 1663.46 1135.49 1663.46 1137.57Z" fill="#FF0000"/>
<path d="M299.733 1151.78C312.209 1168.07 316.022 1177.77 315.848 1193.02C315.502 1220.23 295.401 1246.23 268.196 1254.72C253.987 1259.05 248.615 1258.01 250.175 1251.25C250.695 1248.83 252.427 1241.72 253.814 1235.48C257.452 1219.02 257.106 1194.24 253.12 1183.49C248.788 1172.23 240.298 1161.66 230.594 1155.42C219.85 1148.66 217.078 1149.18 222.796 1156.81C226.435 1161.48 227.821 1165.47 228.341 1173.27C229.381 1186.27 226.089 1192.16 217.944 1192.16C213.092 1192.16 209.973 1189.56 194.898 1173.96C183.981 1162.52 174.971 1154.9 170.639 1152.99C163.881 1150.22 141.527 1148.66 139.275 1150.91C137.888 1152.3 141.181 1162.18 155.39 1200.82C166.48 1230.46 181.035 1262.34 199.75 1297C204.775 1306.53 210.32 1317.8 212.053 1321.96L214.999 1329.58L229.554 1328.54C248.269 1327.16 255.027 1329.24 264.384 1338.94L272.008 1346.74V1341.19C272.008 1330.28 268.196 1322.13 259.532 1314.33C255.027 1310.17 251.214 1306.19 251.214 1305.32C251.214 1304.46 257.279 1302.03 264.73 1299.78C312.036 1285.91 334.389 1260.61 334.736 1220.75C334.909 1196.66 324.166 1169.8 308.224 1154.9C299.04 1146.23 294.015 1144.5 299.733 1151.78Z" fill="#FF0000"/>
<path d="M366.1 1258.53C368.179 1280.54 390.186 1308.79 422.416 1330.62C431.253 1336.51 438.011 1342.23 437.318 1343.1C436.798 1344.14 435.066 1344.49 433.679 1343.79C426.748 1341.19 408.034 1339.81 397.117 1341.19C384.814 1342.75 365.58 1348.99 365.58 1351.59C365.58 1352.28 371.298 1353.5 378.229 1354.19C395.384 1355.75 407.341 1361.47 413.579 1370.83C425.882 1389.54 417.218 1430.1 398.157 1441.71C393.998 1444.31 389.493 1445.17 381.175 1445.17C367.486 1445 360.208 1442.57 345.999 1433.39C331.097 1423.51 322.606 1420.91 305.971 1420.91C287.777 1420.91 285.871 1422.12 290.896 1430.1C298.347 1442.4 316.368 1456.78 334.909 1465.97C367.833 1481.91 392.958 1488.32 428.308 1489.71C462.617 1491.1 492.595 1485.9 526.558 1472.9C542.5 1466.66 544.579 1464.41 547.525 1449.5C550.298 1435.81 553.937 1426.98 560.868 1416.75C563.987 1412.25 566.586 1407.57 566.586 1406.7C566.586 1404.45 554.283 1406.53 542.847 1410.86C537.821 1412.77 526.905 1419.18 518.587 1425.42C499.7 1439.28 496.407 1440.32 490.862 1434.08C483.238 1425.24 485.491 1417.96 502.126 1396.82C514.255 1381.57 515.641 1369.09 507.671 1352.28C499.18 1334.78 488.436 1328.37 452.221 1318.67C411.673 1307.92 387.413 1291.11 372.511 1263.56L365.407 1250.21L366.1 1258.53Z" fill="#FF0000"/>
</svg>
